<svg width="53" height="53" viewBox="0 0 53 53" fill="none" xmlns="http://www.w3.org/2000/svg">
<path fill-rule="evenodd" clip-rule="evenodd" d="M26.6536 38.4024C26.248 37.9955 26.0206 37.4442 26.0214 36.8697C26.0222 36.2952 26.2511 35.7445 26.6579 35.3387L35.9723 26.0502L26.6838 16.7357C26.2897 16.3266 26.0721 15.7789 26.0778 15.2109C26.0835 14.6428 26.3121 14.0997 26.7144 13.6985C27.1167 13.2974 27.6604 13.0702 28.2285 13.0661C28.7966 13.062 29.3436 13.2811 29.7517 13.6763L40.57 24.5248C40.9756 24.9316 41.203 25.483 41.2022 26.0575C41.2014 26.632 40.9724 27.1827 40.5657 27.5884L29.7173 38.4067C29.3104 38.8123 28.7591 39.0397 28.1846 39.0389C27.61 39.0381 27.0594 38.8091 26.6536 38.4024ZM13.6536 38.3843C13.248 37.9774 13.0206 37.4261 13.0214 36.8516C13.0222 36.277 13.2511 35.7264 13.6579 35.3206L22.9723 26.0321L13.6838 16.7176C13.2897 16.3084 13.0721 15.7608 13.0778 15.1928C13.0835 14.6247 13.3122 14.0816 13.7144 13.6804C14.1167 13.2792 14.6605 13.0521 15.2286 13.048C15.7967 13.0438 16.3437 13.263 16.7517 13.6582L27.57 24.5067C27.9756 24.9135 28.203 25.4648 28.2022 26.0394C28.2014 26.6139 27.9725 27.1646 27.5657 27.5703L16.7173 38.3885C16.3104 38.7942 15.7591 39.0216 15.1846 39.0208C14.61 39.02 14.0594 38.791 13.6536 38.3843Z" fill="#CE4CDA"/>
</svg>
