<svg width="52" height="52" viewBox="0 0 52 52" fill="none" xmlns="http://www.w3.org/2000/svg">
<g clip-path="url(#clip0_27_68)">
<path fill-rule="evenodd" clip-rule="evenodd" d="M25.3654 13.6349C25.7715 14.0412 25.9997 14.5922 25.9997 15.1667C25.9997 15.7412 25.7715 16.2922 25.3654 16.6985L16.0639 26L25.3654 35.3015C25.76 35.7102 25.9784 36.2575 25.9735 36.8256C25.9685 37.3937 25.7407 37.9371 25.339 38.3388C24.9372 38.7405 24.3938 38.9684 23.8257 38.9733C23.2576 38.9783 22.7103 38.7599 22.3017 38.3652L11.4684 27.5319C11.0622 27.1255 10.834 26.5745 10.834 26C10.834 25.4255 11.0622 24.8745 11.4684 24.4682L22.3017 13.6349C22.708 13.2287 23.259 13.0005 23.8335 13.0005C24.408 13.0005 24.959 13.2287 25.3654 13.6349ZM38.3654 13.6349C38.7715 14.0412 38.9997 14.5922 38.9997 15.1667C38.9997 15.7412 38.7715 16.2922 38.3654 16.6985L29.0639 26L38.3654 35.3015C38.76 35.7102 38.9784 36.2575 38.9735 36.8256C38.9685 37.3937 38.7407 37.9371 38.339 38.3388C37.9372 38.7405 37.3938 38.9684 36.8257 38.9733C36.2576 38.9783 35.7103 38.7599 35.3017 38.3652L24.4684 27.5319C24.0622 27.1255 23.834 26.5745 23.834 26C23.834 25.4255 24.0622 24.8745 24.4684 24.4682L35.3017 13.6349C35.708 13.2287 36.259 13.0005 36.8335 13.0005C37.408 13.0005 37.959 13.2287 38.3654 13.6349Z" fill="#CE4CDA"/>
</g>
<defs>
<clipPath id="clip0_27_68">
<rect width="52" height="52" fill="white"/>
</clipPath>
</defs>
</svg>
