<svg width="1903" height="798" viewBox="0 0 1903 798" fill="none" xmlns="http://www.w3.org/2000/svg">
<path d="M467.561 6.74187C575.433 4.53452 638.247 2.85526 683.084 0.977144C728.466 -0.92307 1000.29 0.1552 1050.75 2.43546C1078.86 3.70595 1081.19 4.16774 1084.59 9.10609C1086.59 12.0227 1091.51 14.9084 1095.51 15.5204C1099.51 16.1325 1111.17 18.5917 1121.42 20.9846C1144.19 26.303 1168.1 26.809 1170.46 22.0231C1172.8 17.2571 1180.08 17.9421 1182.19 23.1279C1183.18 25.5584 1186.35 27.547 1189.24 27.547C1192.13 27.547 1196.5 28.1502 1198.96 28.886C1201.84 29.7455 1206.22 27.7635 1211.17 23.3621C1217.44 17.8007 1221.07 16.5059 1230.32 16.5324C1236.6 16.5523 1243.52 17.4449 1245.7 18.5188C1251.83 21.5459 1247.26 27.1581 1236.91 29.3124L1227.56 31.259L1237.1 32.9471C1244.47 34.253 1248.34 33.6652 1254.12 30.3509C1259.41 27.3194 1264.67 26.3516 1272.12 27.0388C1279.65 27.7348 1285.53 26.6234 1292.76 23.1389C1302.38 18.5077 1303.35 18.4414 1312.44 21.8022C1317.7 23.7466 1324.78 25.3375 1328.16 25.3375C1332.5 25.3375 1334.04 26.4798 1333.37 29.2042C1332.62 32.2003 1329.55 33.0709 1319.69 33.0709C1307.09 33.0709 1306.96 33.1482 1306.1 41.1689C1304.87 52.6541 1312.33 53.9887 1332.74 45.9371C1346.9 40.3491 1348.41 39.0853 1347.38 33.6542C1346.6 29.498 1347.64 27.2863 1350.71 26.5991C1361.13 24.2658 1388.26 22.7412 1395.2 24.0979L1402.72 25.5695L1396.67 29.9576C1390.32 34.569 1388.4 46.1028 1393.58 48.593C1395.2 49.3752 1395.75 51.9183 1394.8 54.2472C1393.42 57.63 1394.47 58.4807 1400.01 58.4807C1403.82 58.4807 1408.59 56.934 1410.6 55.0449C1419.52 46.6707 1440.43 42.2184 1450.48 46.5536C1460.01 50.6722 1460.84 50.4468 1462.89 43.184C1463.89 39.631 1468.61 32.1318 1473.39 26.5151C1481.36 17.14 1482.46 16.5854 1486.91 19.7164C1494.23 24.8823 1561.6 26.4665 1570.95 21.6939C1576.69 18.7596 1581.06 18.616 1601.12 20.704C1627.02 23.3997 1630.18 25.185 1633.13 38.7804C1635.72 50.7429 1627.87 62.7518 1614 68.0304C1608.19 70.2444 1602.13 71.4287 1600.53 70.662C1596.18 68.5673 1597.05 53.2993 1601.8 48.4074C1607.37 42.6714 1607.29 32.7814 1601.66 31.0978C1593.61 28.6916 1587.27 29.677 1582.09 34.1337C1578.02 37.638 1577.69 39.1582 1580.45 41.7456C1582.35 43.5243 1583.48 47.2717 1582.97 50.0734C1582.15 54.5919 1580.07 55.3144 1564.52 56.4722C1551.35 57.4555 1542.66 59.791 1529.57 65.8628C1507.81 75.9671 1504.05 76.1019 1504.1 66.7665C1504.17 52.7049 1506.4 50.2015 1520.27 48.5819C1538.88 46.4055 1540.92 45.4245 1540.92 38.6412C1540.92 33.2123 1539.65 32.3727 1529.48 31.1066C1523.14 30.3156 1515.58 30.7067 1512.53 31.9816C1509.49 33.2477 1503.86 33.6675 1500.02 32.9162C1489.61 30.879 1486.79 33.3029 1491.47 40.2895C1493.69 43.6104 1495.52 51.388 1495.53 57.5748C1495.55 68.7087 1495.44 68.8501 1484.39 71.6894C1476.09 73.8238 1470.28 73.9741 1461.69 72.2749C1450.62 70.0875 1450.06 70.2289 1448.32 75.6312C1446.57 81.0579 1446.34 81.1132 1442.45 77.0586C1438.58 73.0284 1437.97 73.2229 1428.69 81.4976C1423.35 86.257 1418.98 89.1891 1418.98 88.0158C1418.98 86.8403 1420.29 84.8583 1421.9 83.6077C1423.89 82.0544 1421.74 80.0504 1415.07 77.2531C1406.18 73.5211 1404.75 73.4637 1398.65 76.5814C1394.97 78.4595 1387.51 80.7441 1382.07 81.6567C1366.66 84.2463 1356.83 89.0101 1354.97 94.7903C1352.83 101.432 1340.08 105.73 1324.45 105.078C1305.11 104.269 1271.45 103.978 1250.25 104.433C1239.33 104.667 1227.5 104.855 1223.96 104.848C1220.42 104.844 1214.07 106.589 1209.86 108.728L1202.19 112.615L1209.96 113.317C1214.24 113.704 1217.06 114.868 1216.24 115.907C1215.41 116.945 1144.72 117.281 1059.13 116.654C948.081 115.841 902.977 116.205 901.607 117.931C900.235 119.661 927.745 120.432 998.403 120.646C1135.43 121.062 1209.82 123.02 1211.19 126.241C1212.01 128.177 1186.63 128.826 1109.77 128.839C1053.39 128.85 1006.53 129.429 1005.63 130.128C1004.74 130.826 1046.01 131.473 1097.35 131.568C1148.69 131.663 1203.46 132.121 1219.06 132.582C1234.65 133.046 1266.78 133.966 1290.44 134.624C1335.88 135.892 1350.73 137.826 1335.32 140.464C1330.65 141.266 1320.07 142.039 1311.82 142.183C1297.97 142.424 1295.89 143.197 1284.43 152.382C1277.21 158.171 1273.27 162.915 1275 163.746C1281.85 167.043 1315.89 167.16 1329.81 163.934C1341.98 161.117 1345.2 161.066 1351.08 163.602C1360.55 167.69 1377.89 167.513 1383.33 163.275C1387.39 160.116 1388.47 160.217 1395.26 164.38C1405.62 170.726 1417.18 170.33 1422.97 163.434C1429.11 156.132 1438.83 155.999 1438.83 163.218C1438.83 168.877 1449.69 173.349 1459.39 171.691C1464.97 170.739 1465.44 169.294 1461.68 164.667C1458.95 161.302 1465.3 155.906 1472.15 155.772C1477.51 155.666 1476.48 169.029 1470.74 174.089C1465.87 178.373 1465.99 178.435 1476.47 177.156C1483.79 176.261 1489.74 176.997 1495.32 179.491C1502.03 182.494 1504.78 182.669 1510.93 180.485C1518.05 177.956 1518.19 177.591 1513.95 172.54C1509.87 167.69 1509.9 166.928 1514.37 163.448C1518.98 159.855 1519.61 160.211 1525.98 169.972C1529.68 175.651 1534.13 179.929 1535.85 179.48C1537.58 179.032 1540.77 173.923 1542.94 168.127C1546.18 159.479 1548.62 157.024 1556.57 154.435C1561.9 152.7 1570.13 151.282 1574.86 151.282C1586.41 151.282 1586.94 159.148 1575.66 162.988C1564.34 166.844 1549.43 175.989 1549.43 179.08C1549.43 183.479 1554.42 183.846 1607.09 183.312C1664.3 182.728 1663.86 182.591 1655.9 198.847C1651.23 208.366 1638.88 218.572 1634.55 216.488C1633.39 215.927 1631.74 211.426 1630.89 206.488C1628.19 190.822 1620.74 187.812 1601.94 194.797C1594.41 197.592 1591.05 200.668 1588.63 206.949C1584.28 218.273 1574.95 218.894 1574.95 207.862C1574.95 199.943 1571.44 197.682 1559.12 197.682C1553.54 197.682 1552.26 198.812 1552.24 203.759C1552.23 207.696 1548.6 212.805 1541.95 218.278C1528.56 229.281 1524.01 226.329 1532.18 211.938C1535.47 206.152 1537.56 200.95 1536.82 200.38C1534 198.184 1497.24 196.379 1483.43 197.76C1473.08 198.794 1467.78 200.568 1464.89 203.969C1462.65 206.587 1458.57 208.73 1455.8 208.73C1453.04 208.73 1450.01 210.29 1449.08 212.197C1447.98 214.426 1445.44 215.187 1441.97 214.327C1438.2 213.395 1434.75 214.798 1430.53 218.974C1427.21 222.264 1425.48 225.713 1426.7 226.641C1427.91 227.569 1440.73 228.822 1455.19 229.425L1481.47 230.523L1488.56 219.628C1496.24 207.815 1497.49 207.225 1505.37 211.713C1509.42 214.022 1510.24 216.479 1508.97 222.589C1507.14 231.371 1509.63 233.035 1524.62 233.035C1529.44 233.035 1535.4 234.452 1537.86 236.184C1540.83 238.272 1550.46 239.529 1566.44 239.911C1593.18 240.552 1600.47 241.485 1600.47 244.255C1600.47 246.244 1589.42 248.785 1562.72 252.939C1553.36 254.395 1545.55 256.896 1544.65 258.726C1542.47 263.154 1543.48 263.624 1560.82 266.185C1569.19 267.423 1579.1 269.997 1582.84 271.908C1588.33 274.707 1594.15 275.087 1612.91 273.87C1636 272.372 1636.19 272.401 1639.53 278.108C1643.7 285.238 1648.05 285.45 1651.35 278.685C1653.81 273.64 1654.58 273.536 1683.18 274.405C1699.3 274.893 1734.18 274.402 1760.7 273.311C1787.21 272.219 1810.45 271.751 1812.35 272.27C1823.5 275.337 1817.04 289.874 1801.79 296.019L1793.31 299.434V291.646C1793.31 281.248 1787.53 281.466 1774.06 292.368C1764.14 300.391 1762.74 300.824 1749.81 299.863C1737.73 298.968 1735.74 298.078 1733.23 292.454C1731.65 288.939 1729.22 286.064 1727.81 286.064C1724.22 286.064 1724.63 289.746 1728.8 295.073C1731.9 299.039 1731.35 300.274 1724.32 305.031L1716.29 310.462L1707.77 304.879C1703.08 301.805 1697.85 299.967 1696.13 300.793C1694.42 301.618 1683.36 303.467 1671.56 304.901C1659.76 306.335 1644.04 309.362 1636.62 311.629L1623.14 315.748L1618.74 310.849C1613.3 304.808 1609.07 304.72 1595.54 310.37C1581.55 316.212 1570.74 316.055 1565.23 309.928L1560.86 305.067L1551.97 310.193C1544.64 314.413 1540.87 315.08 1530.57 313.982C1518.96 312.74 1517.84 313.072 1514.67 318.689C1512.79 322.012 1509.96 325.463 1508.37 326.356C1506.78 327.248 1489.07 327.993 1469.03 328.013L1432.59 328.046L1423.16 335.399C1416.23 340.797 1411.21 342.746 1404.3 342.731C1392.55 342.7 1361.02 345.159 1336.74 347.996C1311.58 350.937 1187.9 355.04 1046.07 357.641C997.87 358.525 999.393 358.403 1004.51 360.928C1012.08 364.667 1220.38 365.219 1609.23 362.533C1887.69 360.608 1894.53 360.661 1896.56 364.742C1898.42 368.483 1898.99 368.556 1901.98 365.44C1904.46 362.862 1915.14 361.233 1943.2 359.159C1981.73 356.311 1988.76 357.124 1985.35 364.04C1983.88 367.029 1942.1 374.4 1926.19 374.48C1922.51 374.497 1914.66 375.827 1908.74 377.436C1896.04 380.879 1898.75 383.992 1916.62 386.506C1932.49 388.742 1939.89 392.012 1934.78 394.536C1932.62 395.603 1926.64 396.489 1921.49 396.509C1913.5 396.538 1911.52 397.669 1908.02 404.205C1905.76 408.418 1903.91 413.852 1903.91 416.28C1903.91 421.693 1897.13 424.698 1880.87 426.499C1864.35 428.326 1850.03 431.82 1850.03 434.018C1850.03 436.981 1861.59 438.459 1885.48 438.546C1906.82 438.623 1927.92 441.027 1931.46 443.784C1934.85 446.427 1923.04 456.421 1915.06 457.665C1910.42 458.39 1905.8 460.022 1904.79 461.297C1902.58 464.077 1920.27 476.086 1926.57 476.086C1929.01 476.086 1933.96 477.697 1937.56 479.665C1942.8 482.522 1945.52 482.745 1951.09 480.77C1959.39 477.82 1980.48 477.462 1980.48 480.269C1980.48 483.267 1975.71 484.21 1934.7 489.33C1913.87 491.933 1882.78 495.928 1865.62 498.212C1821.54 504.079 1796.51 506.679 1760.7 509.112C1718.81 511.958 1647.47 515.02 1577.79 516.965C1485.11 519.552 1469.3 520.52 1473.1 523.372C1474.5 524.42 1528.43 526.658 1555.81 526.804C1570.51 526.881 1574.95 527.644 1574.95 530.085C1574.95 533.426 1567.51 534.553 1531.25 536.696C1516.32 537.578 1510.07 539.012 1505.02 542.708C1491.54 552.57 1494.74 553.414 1545.89 553.517C1607.19 553.643 1631.2 555.802 1642.29 562.19C1648.84 565.964 1652.08 566.6 1656.14 564.905C1662.45 562.276 1734.44 563.637 1754.46 566.761C1761.94 567.93 1775.98 568.898 1785.65 568.911C1812.39 568.949 1824.94 571.035 1823.89 575.268C1823.24 577.922 1818.32 579.195 1804.62 580.26C1780.01 582.171 1768.75 583.629 1765.13 585.375C1760.66 587.529 1761.48 594.739 1766.37 596.202C1768.71 596.9 1770.62 599.337 1770.62 601.617C1770.62 605.409 1767.18 605.884 1730.21 607.203C1707.99 607.994 1676.72 608.646 1660.74 608.65C1637.11 608.657 1631.67 609.264 1631.67 611.896C1631.67 617.468 1642.37 620.051 1660.31 618.807C1669.65 618.158 1690.96 618.666 1707.66 619.934C1724.35 621.2 1745.36 622.508 1754.35 622.838C1763.33 623.167 1771.36 623.965 1772.19 624.61C1776.79 628.194 1745.54 633.733 1707.69 636.044C1670 638.344 1665.33 639.093 1658.77 643.895C1654.78 646.813 1651.52 650.022 1651.52 651.025C1651.52 652.028 1669.16 652.85 1690.73 652.85C1728.88 652.85 1730.11 652.998 1736.59 658.374C1740.26 661.412 1745.67 663.898 1748.62 663.898C1757.29 663.898 1764.95 668.133 1764.95 672.926C1764.95 681.758 1748.67 684.46 1689.8 685.39C1579.08 687.142 1543.76 690.088 1543.76 697.573C1543.76 698.495 1558.75 699.264 1577.08 699.277C1623.46 699.317 1737.75 701.864 1739.24 702.894C1742.73 705.307 1732.43 708.692 1717.38 710.075C1703.7 711.332 1699.1 712.831 1693.59 717.824C1687.58 723.268 1683.97 724.236 1663.75 725.823C1651.1 726.817 1636.96 729.155 1632.34 731.019C1620.47 735.801 1618.01 736.017 1543.76 738.839C1507.11 740.231 1466.91 742.326 1454.43 743.49C1408.63 747.77 1212.7 750.863 966.667 751.195C827.853 751.383 707.26 752.229 698.681 753.077C674.358 755.484 669.155 756.672 672.288 759.114C674.106 760.53 677.602 760.532 682.381 759.116C690.267 756.781 703.763 758.836 717.678 764.492C728.262 768.794 731.696 768.597 743.258 763.029C751.691 758.968 755.704 758.502 772.044 759.684C782.488 760.442 797.045 762.656 804.392 764.607C817.156 767.994 818.299 767.948 830.008 763.531C844.738 757.976 853.027 757.775 873.762 762.472C882.724 764.501 894.257 765.537 900.567 764.876C914.099 763.462 947.951 766.858 965.229 771.366C975.767 774.112 987.289 774.402 1031.87 773.034C1085.28 771.397 1125.16 771.211 1155.25 772.46C1163.83 772.815 1177.23 772.798 1185.03 772.418C1192.82 772.04 1210.69 772.86 1224.73 774.243C1251.48 776.879 1256.98 777.078 1411.89 781.039C1464.92 782.394 1509.41 784.347 1510.76 785.377C1512.1 786.404 1512.26 788.446 1511.1 789.908C1509.48 791.941 1482.51 792.297 1396.63 791.411C1334.84 790.777 1283.64 790.032 1282.86 789.76C1282.08 789.486 1253.37 789.641 1219.06 790.101C1033.44 792.586 636.976 788.079 589.502 782.942C560.684 779.824 471.852 780.527 419.352 784.287C394.397 786.075 342.714 789.557 304.501 792.025C266.288 794.493 230.877 797.045 225.807 797.697C211.273 799.564 213.905 792.717 232.817 779.466C248.195 768.692 248.876 767.8 243.894 764.938C240.902 763.219 224.185 760.771 205.61 759.333C170.454 756.608 163.262 756.149 77.9437 751.168C18.8224 747.719 11.2167 745.998 7.76831 735.284C6.44965 731.192 7.83917 726.501 12.3169 719.923C15.8646 714.715 18.0397 708.977 17.1492 707.174C14.9968 702.799 30.9654 689.553 36.4272 691.186C38.7157 691.868 41.3417 691.477 42.2633 690.315C43.1849 689.153 41.9486 688.203 39.5182 688.203C37.0879 688.203 32.5222 686.197 29.3773 683.746C24.0545 679.599 23.958 678.839 27.9934 672.758C31.1894 667.943 31.8445 662.868 30.4918 653.462C29.4794 646.442 27.7127 639.703 26.567 638.488C23.3483 635.079 27.9566 611.251 34.9639 595.092C42.7227 577.197 41.9996 570.277 32.2613 569.227C23.9297 568.33 18.0822 565.025 18.0822 561.211C18.0822 557.349 55.5889 554.666 110.703 554.589C155.855 554.525 172.176 552.678 148.082 550.356C141.31 549.704 116.891 548.005 93.8187 546.582L51.8654 543.996L43.2502 534.237C31.6772 521.13 34.8647 518.067 60.0752 518.067C75.3291 518.067 79.8806 517.192 85.3027 513.224C91.4508 508.723 94.4823 508.403 127.993 508.688C147.83 508.856 171.095 509.543 179.693 510.215C277.671 517.864 312.699 519.68 399.501 521.616C463.548 523.043 508.598 521.687 504.45 518.454C503.437 517.663 463.458 516.353 415.606 515.54C367.757 514.727 320.949 513.487 311.59 512.784C285.291 510.811 230.815 507.393 148.53 502.552C66.5522 497.728 58.8643 496.933 55.674 492.951C54.4943 491.482 44.7985 489.147 34.1245 487.763C23.4533 486.382 14.251 484.887 13.681 484.44C13.111 483.996 15.7398 478.702 19.5228 472.679C26.3345 461.834 26.3486 461.693 20.7876 458.672C15.3229 455.705 15.4505 455.356 25.427 445.87C35.3807 436.405 35.5594 435.916 31.4673 429.336C24.7719 418.565 28.6797 412.206 44.9517 407.393C52.5999 405.131 60.8493 401.704 63.2853 399.777C67.298 396.597 67.1959 395.976 62.2048 393.093C59.1762 391.343 53.4336 389.898 49.4436 389.88C41.0552 389.84 37.6835 388.252 33.5346 382.381C31.8927 380.063 23.9184 376.201 15.8107 373.801C6.90905 371.165 0.922583 368.021 0.704225 365.865C-0.906526 350.033 0.287376 336.984 3.86052 331.36C6.17739 327.715 8.35816 319.263 8.70981 312.579C10.2497 283.316 11.2195 279.025 16.8344 276.632C25.7134 272.851 26.1643 270.664 19.9057 261.759L13.9787 253.33L20.2856 243.493C28.5662 230.572 28.2373 225.547 18.7912 220.724L10.9955 216.744L19.8206 214.961C27.3469 213.443 28.4443 212.356 27.2731 207.579C26.5159 204.497 27.534 197.426 29.5305 191.865C33.0384 182.105 33.4864 181.791 42.3654 182.914C50.9977 184.008 51.6755 183.612 53.3883 176.502C54.9083 170.187 54.0263 168.099 48.0966 163.969C41.3644 159.285 41.1942 158.626 44.9886 151.834C48.9616 144.728 49.2168 144.649 69.7 144.317C97.9675 143.858 98.3163 143.822 99.3599 141.33C99.8874 140.071 93.9151 139.052 85.4133 138.95C69.147 138.754 52.1121 133.164 52.1121 128.024C52.1121 123.435 58.5722 123.974 70.7747 129.584C79.4836 133.588 86.5562 134.525 112.646 135.126C150.853 136.005 149.886 133.152 110.247 128.053C69.4589 122.803 70.4713 123.011 63.1038 118.337L56.3659 114.062L64.8734 111.45C71.3022 109.477 78.5789 109.44 94.6496 111.293C127.134 115.043 135.911 113.898 108.829 109.444C95.5712 107.263 77.8501 103.176 69.4447 100.358L54.1681 95.2366L63.135 88.9924L72.1047 82.7482L65.6532 74.0094C59.6186 65.8363 59.508 65.032 63.9517 61.5675C66.6145 59.4905 75.0285 57.3892 83.0935 56.786C97.8767 55.679 101.637 53.1756 92.069 50.8114C82.0018 48.3212 80.2549 44.5097 83.3318 31.7341C84.9114 25.1784 88.3484 18.5718 90.9687 17.0516C93.9321 15.3348 105.139 14.2897 120.603 14.2897C142.703 14.2897 146.131 13.7395 151.386 9.34472C156.193 5.32334 161.64 4.11914 180.564 2.89283C226.379 -0.0790113 332.888 0.864464 368.426 4.55441C395.12 7.3274 416.216 7.7914 467.561 6.74187Z" fill="#FBDFDF"/>
<path d="M1684.13 29.7566C1676.9 29.7566 1675.78 28.2541 1678.67 22.3855C1680.09 19.5042 1681.53 19.4711 1689.68 22.127C1696.23 24.2592 1701.72 24.584 1707.9 23.203C1716.55 21.2719 1725.25 24.5531 1725.25 29.7455C1725.25 31.5529 1734.67 28.7711 1751.71 21.9303C1758.78 19.0955 1760.47 19.1065 1765.82 22.0231C1769.15 23.846 1774.67 25.3375 1778.08 25.3375C1782.87 25.3375 1783.94 26.3362 1782.79 29.7411C1781.54 33.4796 1779.7 33.9459 1770.66 32.819C1752.58 30.5675 1735.51 42.868 1752.19 46.1315C1756.09 46.8938 1759.28 48.3477 1759.28 49.3619C1759.28 51.1649 1725.15 56.3109 1716.74 55.7762C1707.58 55.1929 1694.06 59.148 1694.06 62.4137C1694.06 65.2419 1693.13 65.1403 1688.39 61.795C1679.8 55.7409 1681.3 50.0955 1692.62 45.8907C1702.45 42.2405 1702.48 42.1764 1696.87 38.1064C1693.77 35.8505 1691.22 33.0488 1691.22 31.8799C1691.22 30.7111 1688.03 29.7566 1684.13 29.7566Z" fill="#FBDFDF"/>
<path d="M1825.67 40.4618C1826.08 40.042 1830.53 34.9689 1835.54 29.1887C1843.25 20.2997 1845.47 19.0181 1849.95 20.883C1852.86 22.0982 1859.22 22.4695 1864.09 21.7094C1870.71 20.6775 1873.88 21.3138 1876.6 24.2172C1879.63 27.4387 1881.32 27.6619 1886.47 25.5142C1895.32 21.8221 1897.12 23.5919 1897.89 36.7785L1898.58 48.4516L1891.32 43.1376L1884.06 37.8236L1877.68 42.3753C1874.17 44.8765 1868.12 47.6804 1864.23 48.6018C1858.07 50.0645 1857.63 49.8414 1860.81 46.8585C1862.99 44.8036 1863.71 41.1446 1862.6 37.7021C1861.15 33.1814 1859.02 31.9661 1852.56 31.9661C1844.91 31.9661 1844.36 32.5538 1844.36 40.5834V49.1984L1823.8 52.6917C1812.49 54.6118 1797.81 56.828 1791.18 57.6146C1780.25 58.9138 1779.13 58.6155 1779.13 54.4063C1779.13 51.0279 1781.63 49.2669 1788.35 47.9191C1796.27 46.3282 1797.76 44.9096 1798.98 37.8391C1800.56 28.7092 1805.58 25.9605 1806.95 33.4774C1807.56 36.7962 1810.5 38.7583 1816.37 39.7636C1821.07 40.5679 1825.25 40.8816 1825.67 40.4618Z" fill="#FBDFDF"/>
<path d="M1649.69 28.3756C1653.06 29.034 1657.72 28.6341 1660.05 27.4895C1668 23.5742 1669.19 25.3419 1667.17 38.0424C1666.06 45.029 1664.96 50.8511 1664.71 50.9793C1664.48 51.1074 1658.17 52.8022 1650.69 54.7444L1637.11 58.2752L1638.73 48.9863C1642.28 28.6938 1643.13 27.0918 1649.69 28.3756Z" fill="#FBDFDF"/>
<path d="M1915.21 31.575C1915.23 30.7531 1917.49 29.6262 1920.21 29.0694C1929.25 27.231 1942.13 27.5824 1946.45 29.7853C1949.96 31.5772 1948.74 33.2565 1939.45 39.4123C1929.51 45.9945 1927.24 46.6088 1920.07 44.66C1913.65 42.9166 1912.28 41.4694 1913.56 37.7618C1914.45 35.181 1915.19 32.397 1915.21 31.575Z" fill="#FBDFDF"/>
<path d="M1966.3 33.0709C1964.74 33.8221 1963.46 33.3824 1963.46 32.0965C1963.46 30.8105 1964.74 29.7566 1966.3 29.7566C1967.86 29.7566 1969.13 30.194 1969.13 30.731C1969.13 31.2679 1967.86 32.3196 1966.3 33.0709Z" fill="#FBDFDF"/>
<path d="M1267.26 115.929C1259.38 118.567 1249.51 118.567 1247.41 115.929C1246.33 114.566 1250.89 113.779 1259.3 113.874C1269.53 113.991 1271.52 114.504 1267.26 115.929Z" fill="#FBDFDF"/>
<path d="M1838.52 146.863C1836.87 146.863 1836.3 145.868 1837.27 144.653C1838.23 143.438 1839.58 142.444 1840.27 142.444C1840.96 142.444 1841.52 143.438 1841.52 144.653C1841.52 145.868 1840.17 146.863 1838.52 146.863Z" fill="#FBDFDF"/>
<path d="M1869.72 151.348C1862.97 154.163 1862.34 150.842 1868.69 145.895C1871.15 143.975 1874.36 142.978 1875.83 143.681C1879.22 145.314 1876.75 148.418 1869.72 151.348Z" fill="#FBDFDF"/>
<path d="M1740.45 160.951C1737.68 155.701 1737.86 153.924 1741.53 150.729C1743.98 148.602 1747.06 146.863 1748.38 146.863C1752.94 146.863 1751.95 159.583 1747.02 164.265C1744.42 166.733 1743.18 166.11 1740.45 160.951Z" fill="#FBDFDF"/>
<path d="M1613.85 157.853C1615.23 153.741 1619.42 152.636 1641.59 150.539C1659.05 148.889 1659.89 148.982 1658.22 152.387C1657.32 154.21 1655.56 155.701 1654.32 155.701C1653.07 155.701 1652.72 157.69 1653.53 160.12C1655.2 165.087 1650.19 166.146 1646.7 161.565C1643.19 156.96 1626.62 163.18 1622.51 170.646C1620.68 173.972 1618.97 176.972 1618.72 177.313C1618.47 177.655 1615.21 178.393 1611.49 178.952C1606.81 179.657 1603.28 178.47 1600.01 175.099C1595.46 170.408 1595.6 170.079 1603.86 166.168C1608.57 163.934 1613.07 160.193 1613.85 157.853Z" fill="#FBDFDF"/>
<path d="M1691.8 167.354C1694.23 165.198 1697.1 161.196 1698.17 158.458C1699.77 154.371 1701.47 153.737 1707.72 154.903C1711.9 155.683 1715.67 156.532 1716.09 156.788C1716.5 157.044 1711.83 161.627 1705.69 166.972C1696.82 174.703 1693.8 176.137 1690.96 173.983C1688.09 171.806 1688.26 170.501 1691.8 167.354Z" fill="#FBDFDF"/>
<path d="M1890.98 171.168C1888.55 171.168 1887.35 170.174 1888.31 168.958C1889.28 167.743 1891.26 166.749 1892.73 166.749C1894.2 166.749 1895.4 167.743 1895.4 168.958C1895.4 170.174 1893.41 171.168 1890.98 171.168Z" fill="#FBDFDF"/>
<path d="M1915.08 173.377C1913.43 173.377 1912.87 172.383 1913.83 171.168C1914.8 169.953 1916.15 168.958 1916.84 168.958C1917.53 168.958 1918.09 169.953 1918.09 171.168C1918.09 172.383 1916.73 173.377 1915.08 173.377Z" fill="#FBDFDF"/>
<path d="M1760.48 194.483C1761.59 189.907 1763.65 183.784 1765.07 180.874C1766.49 177.967 1768.86 175.587 1770.35 175.587C1772.88 175.587 1781.97 181.617 1781.97 183.298C1781.97 186.807 1777.04 191.772 1768.56 196.812L1758.48 202.802L1760.48 194.483Z" fill="#FBDFDF"/>
<path d="M1844.36 180.006C1842.8 180.006 1841.52 179.012 1841.52 177.796C1841.52 176.581 1842.8 175.587 1844.36 175.587C1845.92 175.587 1847.19 176.581 1847.19 177.796C1847.19 179.012 1845.92 180.006 1844.36 180.006Z" fill="#FBDFDF"/>
<path d="M1685.55 209.979C1685.55 206.211 1692.26 196.909 1699.83 190.194C1705.35 185.298 1711.39 182.216 1715.46 182.216C1722.61 182.216 1730.92 189.602 1730.92 195.966C1730.92 200.352 1726.34 201.324 1724.62 197.302C1724.01 195.877 1721.87 197.795 1719.87 201.562C1715.41 209.943 1709.16 212.259 1706.77 206.408C1704.52 200.882 1700.74 200.924 1696.89 206.521C1694.32 210.261 1685.55 212.937 1685.55 209.979Z" fill="#FBDFDF"/>
<path d="M1804.65 195.473C1803.09 195.473 1801.82 193.922 1801.82 192.028C1801.82 190.135 1803.09 189.198 1804.65 189.949C1806.21 190.7 1807.49 192.249 1807.49 193.394C1807.49 194.538 1806.21 195.473 1804.65 195.473Z" fill="#FBDFDF"/>
<path d="M1859.72 276.74C1860.78 271.612 1863.17 266.656 1865.05 265.726C1874.53 261.032 1891.03 267.069 1889.16 274.551C1887.85 279.798 1882.13 280.163 1880.43 275.107C1878.37 268.967 1872.71 269.387 1872.71 275.68C1872.71 281.433 1867.87 286.064 1861.86 286.064C1858.69 286.064 1858.23 284.043 1859.72 276.74Z" fill="#FBDFDF"/>
<path d="M1834.4 277.602C1835.2 275.982 1835.85 273.245 1835.85 271.521C1835.85 269.541 1838.86 268.388 1844.02 268.388C1854.21 268.388 1857.34 275.156 1850.3 281.933C1845.96 286.111 1844.74 286.29 1839.19 283.585C1835.75 281.915 1833.6 279.224 1834.4 277.602Z" fill="#FBDFDF"/>
<path d="M2028.52 358.98C2025.49 358.98 2023.01 357.985 2023.01 356.77C2023.01 355.555 2026.28 354.561 2030.27 354.561C2034.39 354.561 2036.77 355.517 2035.77 356.77C2034.81 357.985 2031.55 358.98 2028.52 358.98Z" fill="#FBDFDF"/>
<path d="M1957.79 444.047C1956.23 444.799 1954.95 444.359 1954.95 443.073C1954.95 441.787 1956.23 440.733 1957.79 440.733C1959.35 440.733 1960.63 441.171 1960.63 441.707C1960.63 442.244 1959.35 443.296 1957.79 444.047Z" fill="#FBDFDF"/>
<path d="M1850 578.37C1844.25 579.542 1840.21 577.275 1843.49 574.718C1846.12 572.67 1852.28 572.988 1854.08 575.264C1854.94 576.342 1853.1 577.741 1850 578.37Z" fill="#FBDFDF"/>
<path d="M1796.28 602.22C1800.82 608.831 1798.72 609.059 1789.61 602.947C1782.48 598.166 1782.25 597.611 1787.38 597.611C1790.53 597.611 1794.54 599.686 1796.28 602.22Z" fill="#FBDFDF"/>
<path d="M1525.42 789.957C1522.8 786.656 1529.95 784.424 1548.01 782.904C1574 780.719 1619.63 785.363 1616.08 789.833C1614.15 792.259 1527.34 792.377 1525.42 789.957Z" fill="#FBDFDF"/>
<path d="M128.421 797.452C126.164 796.365 127.279 794.891 131.841 792.92C138.659 789.975 145.695 788.947 145.695 790.896C145.695 793.483 131.425 798.899 128.421 797.452Z" fill="#FBDFDF"/>
</svg>
