<svg width="360" height="527" viewBox="0 0 360 527" fill="none" xmlns="http://www.w3.org/2000/svg">
<path d="M149.265 51.9303C177.459 66.8216 193.963 75.3386 205.896 81.1521C217.973 87.0364 287.539 127.16 299.989 135.423C306.925 140.026 307.423 140.548 307.194 142.977C307.059 144.412 307.679 146.259 308.57 147.083C309.462 147.908 311.909 150.574 314.008 153.008C318.67 158.415 324.698 162.106 326.369 160.576C328.033 159.053 329.749 160.384 329.137 162.723C328.85 163.819 329.222 165.061 329.963 165.482C330.705 165.904 331.694 166.779 332.162 167.427C332.709 168.183 334.274 168.047 336.527 167.047C339.375 165.785 340.595 165.808 342.966 167.17C344.575 168.096 346.153 169.456 346.473 170.194C347.374 172.275 344.95 173.805 341.813 173.137L338.978 172.533L341.052 174.587C342.654 176.175 343.777 176.509 345.999 176.056C348.033 175.642 349.601 176.032 351.36 177.389C353.139 178.761 354.896 179.184 357.531 178.877C361.031 178.468 361.296 178.585 362.882 181.228C363.799 182.757 365.262 184.413 366.131 184.908C367.246 185.542 367.386 186.214 366.606 187.182C365.748 188.246 364.764 188.138 362.232 186.698C358.997 184.858 358.947 184.869 356.941 187.884C354.068 192.201 355.685 193.813 362.719 193.641C367.6 193.522 368.269 193.247 369.215 190.971C369.94 189.23 370.7 188.516 371.641 188.695C374.837 189.304 382.143 192.669 383.623 194.214L385.226 195.888L382.696 196.723C380.038 197.601 376.978 201.837 377.751 203.567C377.994 204.11 377.569 205.187 376.807 205.96C375.7 207.083 375.779 207.569 377.202 208.378C378.182 208.935 379.75 209.026 380.687 208.58C384.843 206.604 391.205 207.915 392.818 211.079C394.35 214.085 394.613 214.117 396.756 211.573C397.804 210.328 400.687 208.082 403.164 206.581C407.299 204.074 407.705 204.018 408.149 205.893C408.88 208.985 425.828 219.445 429.291 218.942C431.42 218.632 432.574 219.215 437.261 222.962C443.311 227.8 443.725 228.96 441.454 234.713C439.457 239.776 434.767 243.331 430.031 243.372C428.045 243.39 426.224 242.968 425.985 242.435C425.335 240.98 428.957 235.129 431.266 233.907C433.974 232.475 436.156 228.591 435.084 227.11C433.553 224.992 431.705 224.451 429.383 225.44C427.557 226.218 427.135 226.765 427.267 228.181C427.357 229.154 426.813 230.786 426.059 231.809C424.842 233.458 424.146 233.437 419.895 231.619C416.296 230.081 413.543 229.726 408.831 230.192C400.991 230.969 399.995 230.472 402.087 226.825C405.237 221.33 406.367 220.675 410.29 222.068C415.554 223.934 416.296 223.848 417.807 221.192C419.016 219.066 418.875 218.551 416.547 216.571C415.095 215.336 413.067 214.384 411.998 214.437C410.937 214.49 409.398 213.832 408.578 212.976C406.357 210.658 405.095 211.196 404.741 214.614C404.572 216.239 403.309 219.551 401.934 221.975C399.459 226.337 399.4 226.376 395.931 225.874C393.324 225.498 391.798 224.707 389.969 222.787C387.615 220.315 387.439 220.288 385.789 222.149C384.132 224.018 384.061 224.007 383.964 221.85C383.867 219.707 383.669 219.695 379.442 221.579C377.011 222.662 375.236 223.172 375.497 222.712C375.759 222.252 376.537 221.668 377.228 221.412C378.085 221.095 377.979 219.996 376.89 217.928C375.438 215.168 375.084 214.937 372.821 215.265C371.458 215.464 369.034 215.269 367.435 214.832C362.9 213.595 359.316 214.024 357.55 216.015C355.522 218.303 351.291 218.124 347.422 215.586C342.636 212.445 334.056 207.414 328.51 204.495C325.655 202.992 322.574 201.338 321.666 200.818C320.758 200.299 318.74 200.056 317.181 200.277L314.348 200.68L316.187 202.09C317.198 202.865 317.663 203.733 317.221 204.02C316.778 204.306 298.548 194.112 276.709 181.366C248.372 164.828 236.707 158.383 235.971 158.858C235.234 159.335 242.127 163.655 260.224 174.059C295.322 194.236 313.988 205.867 313.623 207.328C313.403 208.206 306.742 204.754 287 193.533C272.518 185.302 260.355 178.685 259.97 178.827C259.585 178.97 270.04 185.252 283.203 192.787C296.366 200.323 310.329 208.502 314.231 210.96C318.134 213.42 326.179 218.472 332.11 222.187C343.494 229.319 346.88 232.246 342.335 231.028C340.955 230.659 338.067 229.417 335.917 228.269C332.305 226.339 331.599 226.338 326.612 228.261C323.469 229.473 321.401 230.755 321.659 231.333C322.683 233.623 331.399 238.641 335.694 239.412C339.445 240.086 340.285 240.537 341.23 242.389C342.751 245.372 347.244 247.836 349.584 246.971C351.329 246.326 351.584 246.524 352.402 249.146C353.648 253.143 356.704 254.676 359.729 252.823C362.932 250.861 365.457 252.228 363.85 255.055C362.59 257.27 364.382 260.607 367.243 261.375C368.886 261.817 369.329 261.32 369.394 258.959C369.442 257.243 372.275 256.058 374.065 257.006C375.465 257.747 372.223 262.828 369.622 263.971C367.419 264.938 367.435 264.979 370.411 266.009C372.492 266.728 373.854 267.884 374.731 269.676C375.786 271.832 376.454 272.302 378.52 272.346C380.913 272.396 381.029 272.273 381.063 269.675C381.096 267.181 381.274 266.887 383.197 266.178C385.18 265.444 385.264 265.676 384.726 270.428C384.412 273.192 384.601 275.516 385.144 275.592C385.688 275.669 387.644 274.135 389.492 272.183C392.249 269.269 393.424 268.666 396.042 268.813C397.796 268.912 400.226 269.559 401.441 270.25C404.405 271.936 402.791 275.094 399.039 274.95C395.273 274.805 389.408 276.208 388.719 277.419C387.74 279.141 388.938 280.013 402.584 287.497C417.406 295.624 417.325 295.507 411.659 300.708C408.341 303.753 402.898 305.945 402.25 304.497C402.076 304.107 402.655 302.104 403.536 300.047C406.332 293.519 405.087 291.252 398.704 291.241C396.15 291.237 394.6 291.949 392.581 294.056C388.941 297.853 386.408 296.734 388.865 292.415C390.628 289.314 390.229 287.916 387.066 286.117C385.633 285.302 385.053 285.557 383.946 287.491C383.066 289.031 380.998 290.502 378.07 291.672C372.183 294.026 371.671 292.205 376.974 287.764C379.106 285.978 380.8 284.247 380.739 283.916C380.504 282.645 371.465 276.569 367.612 275.093C364.723 273.985 362.967 273.906 361.466 274.814C360.31 275.514 358.783 275.756 358.074 275.352C357.364 274.949 356.239 275.117 355.574 275.727C354.795 276.439 353.974 276.366 353.274 275.522C352.513 274.607 351.315 274.652 349.302 275.671C347.717 276.474 346.506 277.573 346.611 278.113C346.717 278.655 349.729 281.017 353.308 283.365L359.813 287.634L364.059 284.403C368.661 280.9 369.115 280.852 370.139 283.76C370.665 285.256 370.327 286.336 368.64 288.543C366.214 291.714 366.484 292.73 370.335 294.92C371.572 295.624 372.787 297.048 373.033 298.086C373.331 299.337 375.524 301.236 379.544 303.72C386.267 307.876 387.932 309.306 387.315 310.391C386.873 311.17 383.469 310.551 375.686 308.276C372.957 307.479 370.395 307.318 369.756 307.902C368.21 309.317 368.366 309.65 372.25 313.186C374.123 314.893 376.094 317.347 376.63 318.642C377.415 320.539 378.826 321.539 383.914 323.802C390.179 326.589 390.22 326.627 389.807 329.349C389.29 332.75 390.359 333.468 392.713 331.301C394.468 329.686 394.69 329.758 401.841 334.275C405.872 336.821 414.94 341.724 421.992 345.169C429.044 348.614 435.116 351.825 435.487 352.305C437.669 355.135 432.774 359.883 427.489 360.061L424.55 360.16L426.284 357.111C428.6 353.04 427.066 352.281 421.178 354.581C416.846 356.274 416.39 356.239 413.283 353.974C410.38 351.86 410.068 351.221 410.675 348.652C411.053 347.045 411.067 345.564 410.706 345.358C409.784 344.834 409.069 346.335 408.953 349.029C408.867 351.036 408.45 351.438 405.585 352.274L402.314 353.228L401.37 349.797C400.851 347.91 399.915 346.425 399.291 346.498C398.667 346.571 395.416 345.68 392.066 344.517C388.716 343.355 384.004 342.244 381.595 342.048L377.216 341.692L377.177 339.131C377.126 335.972 376.06 335.32 371.327 335.556C366.434 335.8 363.691 334.159 363.642 330.956L363.602 328.414L360.176 329.122C357.354 329.704 356.238 329.415 353.838 327.481C351.131 325.298 350.77 325.264 348.705 327C347.484 328.028 345.988 328.965 345.38 329.082C344.773 329.199 340.061 326.905 334.91 323.986L325.545 318.676L321.483 320.177C318.502 321.278 316.781 321.309 315.008 320.293C311.998 318.565 303.353 314.923 296.487 312.487C289.37 309.963 256.694 293.505 219.693 273.809C207.118 267.115 207.536 267.289 208.287 269.025C209.399 271.595 262.769 302.235 363.227 357.978C435.164 397.895 436.911 398.915 436.523 400.81C436.168 402.546 436.298 402.658 437.76 401.875C438.97 401.227 442.075 402.149 449.744 405.436C460.273 409.949 461.895 411.292 459.481 413.503C458.437 414.458 446.068 411.243 441.963 408.949C441.015 408.419 438.702 407.793 436.822 407.557C432.796 407.051 432.798 408.665 436.827 412.26C440.406 415.454 441.578 417.815 439.702 418.056C438.91 418.158 437.177 417.632 435.85 416.887C433.793 415.732 433.033 415.886 430.677 417.933C429.159 419.253 427.474 421.11 426.933 422.061C425.728 424.18 423.318 424.367 418.741 422.696C414.093 421 409.636 420.275 409.147 421.136C408.487 422.296 411.128 424.564 417.242 428.086C422.707 431.234 427.589 435.256 427.884 436.853C428.166 438.383 422.909 440.571 420.583 439.893C419.229 439.499 417.679 439.463 417.135 439.814C415.95 440.58 417.817 447.865 419.435 448.785C420.062 449.142 420.974 450.495 421.461 451.792C422.17 453.676 422.82 454.161 424.689 454.2C427.478 454.258 432.973 457.198 432.348 458.296C431.68 459.47 430.246 459.143 418.575 455.159C412.645 453.134 403.772 450.158 398.858 448.547C386.231 444.405 379.222 441.767 369.485 437.489C358.093 432.484 339.092 423.264 320.764 413.848C296.388 401.325 292.111 399.394 292.452 401.066C292.578 401.68 305.931 410.434 312.929 414.49C316.687 416.668 317.658 417.615 317.114 418.571C316.37 419.879 314.208 419.233 304.418 414.775C300.389 412.941 298.463 412.588 296.343 413.298C290.688 415.191 291.319 415.988 304.432 423.499C320.146 432.502 325.832 436.854 327.257 440.975C328.1 443.41 328.79 444.132 330.211 444.062C332.415 443.953 350.601 455.001 355.045 459.148C356.708 460.699 360.097 463.128 362.577 464.546C369.436 468.466 372.193 471.115 370.982 472.62C370.224 473.564 368.677 473.344 364.922 471.76C358.177 468.914 354.96 467.84 353.64 467.994C352.013 468.184 350.62 471.128 351.549 472.414C351.994 473.029 351.943 474.263 351.436 475.156C350.591 476.64 349.602 476.324 339.814 471.441C333.931 468.504 325.756 464.193 321.65 461.86C315.579 458.411 314.048 457.855 313.462 458.885C312.221 461.067 314.393 463.64 319.277 465.773C321.822 466.884 327.181 470.195 331.187 473.131C335.192 476.065 340.296 479.646 342.531 481.087C344.765 482.528 346.649 484.013 346.718 484.387C347.102 486.462 337.844 484.067 327.607 479.442C317.415 474.838 316.05 474.449 313.296 475.371C311.622 475.931 310.07 476.711 309.847 477.104C309.624 477.497 313.972 480.395 319.509 483.545C329.307 489.118 329.59 489.355 330.058 492.407C330.323 494.131 331.159 495.895 331.916 496.326C334.143 497.592 335.168 500.37 334.1 502.246C332.134 505.704 327.35 504.383 312.026 496.15C283.2 480.663 273.475 476.658 271.808 479.589C271.603 479.95 275.283 482.441 279.986 485.123C291.888 491.913 320.671 509.603 320.824 510.224C321.184 511.679 317.783 511.498 313.612 509.843C309.819 508.337 308.303 508.251 305.775 509.401C303.02 510.655 301.879 510.507 296.332 508.175C292.862 506.716 288.711 505.567 287.108 505.621C282.997 505.76 282.316 505.485 262.619 495.745C252.897 490.937 242.107 485.886 238.643 484.519C225.929 479.505 174.923 452.099 111.668 416.294C75.9777 396.093 44.8202 378.811 42.4283 377.89C35.6462 375.279 34.0452 374.985 34.3062 376.398C34.4577 377.218 35.3551 377.73 36.8976 377.873C39.443 378.111 42.4511 380.887 44.7652 385.134C46.525 388.364 47.4508 388.788 51.6597 388.297C54.7299 387.939 55.8642 388.342 59.7972 391.192C62.3106 393.014 65.5557 396.007 67.0082 397.844C69.5318 401.034 69.8356 401.183 73.8261 401.164C78.8456 401.14 81.0191 402.272 85.2981 407.14C87.1477 409.243 89.8788 411.333 91.6462 411.996C95.4364 413.419 103.373 419.693 106.807 423.981C108.902 426.596 111.796 428.392 123.549 434.368C137.631 441.528 147.911 447.279 155.362 452.164C157.485 453.556 160.93 455.506 163.018 456.496C165.105 457.487 169.51 460.418 172.807 463.009C179.09 467.949 180.458 468.83 219.358 493.007C232.675 501.283 243.665 508.546 243.782 509.145C243.898 509.744 243.483 510.566 242.859 510.969C241.992 511.529 234.987 507.729 213.13 494.839C197.402 485.565 184.421 477.796 184.281 477.576C184.142 477.355 176.733 473.222 167.819 468.39C119.598 442.252 18.7882 382.581 7.7404 373.636C1.03408 368.206 -21.935 355.507 -36.2546 349.311C-43.0613 346.366 -57.1092 340.181 -67.472 335.566C-77.8349 330.951 -87.4969 326.778 -88.9441 326.292C-93.0922 324.901 -90.8917 322.604 -83.0843 320.179C-76.736 318.207 -76.3624 317.957 -77.0048 316.109C-77.3903 314.999 -81.1383 311.598 -85.588 308.322C-94.0096 302.121 -95.7541 300.891 -116.555 286.479C-130.97 276.494 -132.54 274.709 -131.04 270.011C-130.467 268.216 -129.066 266.582 -126.451 264.661C-124.381 263.14 -122.544 261.211 -122.371 260.375C-121.95 258.348 -114.9 255.494 -113.861 256.931C-113.425 257.533 -112.663 257.763 -112.168 257.443C-111.672 257.122 -111.778 256.57 -112.403 256.215C-113.027 255.86 -113.752 254.408 -114.014 252.989C-114.458 250.588 -114.313 250.276 -111.923 248.485C-110.03 247.066 -108.732 245.175 -106.985 241.295C-105.682 238.399 -104.635 235.502 -104.658 234.859C-104.726 233.054 -98.2364 224.398 -92.8388 219.095C-86.8615 213.222 -85.5062 210.407 -87.7734 208.574C-89.7132 207.006 -90.4789 204.858 -89.6296 203.365C-88.7696 201.852 -78.5404 206.28 -64.3695 214.3C-52.7599 220.87 -48.1575 222.53 -53.8277 218.102C-55.4216 216.858 -61.3143 212.626 -66.9225 208.699L-77.1207 201.559L-77.1599 196.48C-77.2133 189.658 -75.7128 188.924 -69.2386 192.606C-65.3213 194.834 -63.9577 195.157 -61.6816 194.395C-59.1005 193.531 -58.2507 193.848 -49.7083 198.854C-44.6516 201.817 -38.8299 205.484 -36.7714 207.003C-13.3135 224.308 -4.72252 230.136 17.1377 243.571C33.2675 253.485 45.1387 259.534 44.7931 257.662C44.7092 257.204 34.734 250.852 22.6265 243.545C10.5197 236.238 -1.22493 228.916 -3.47172 227.274C-9.78621 222.66 -23.0149 213.365 -43.068 199.451C-63.0464 185.589 -64.8435 184.155 -64.7762 182.13C-64.752 181.383 -66.7219 179.052 -69.155 176.952C-71.5879 174.852 -73.618 172.923 -73.665 172.665C-73.7125 172.407 -71.8586 170.719 -69.5459 168.913C-65.3818 165.662 -65.3467 165.609 -66.1022 163.614C-66.8448 161.654 -66.7343 161.536 -62.0601 159.279C-57.3961 157.027 -57.2415 156.862 -56.8272 153.688C-56.1481 148.493 -53.7285 146.574 -48.4782 147.067C-46.0102 147.298 -43.1286 147.161 -42.074 146.763C-40.3355 146.104 -40.2235 145.846 -40.8632 143.988C-41.2513 142.86 -42.4042 141.456 -43.4249 140.866C-45.5703 139.625 -46.0824 138.511 -45.8406 135.607C-45.7461 134.459 -46.934 131.782 -48.4817 129.659C-50.1807 127.327 -51.018 125.221 -50.5938 124.345C-47.4822 117.911 -44.2698 112.977 -42.1001 111.297C-40.6933 110.208 -38.2513 107.218 -36.6727 104.652C-29.761 93.4199 -28.5565 91.8816 -26.5817 91.7648C-23.4597 91.5815 -22.8568 90.7909 -22.4813 86.3905L-22.1263 82.2246L-18.3163 79.2945C-13.3125 75.4449 -12.2781 73.4297 -13.6299 70.1616L-14.7458 67.4649L-12.0824 68.0558C-9.81157 68.5608 -9.28767 68.2954 -8.52471 66.2541C-8.03281 64.9367 -6.19693 62.3172 -4.44585 60.4314C-1.37179 57.1227 -1.18685 57.0653 0.843379 58.8016C2.81664 60.4906 3.07877 60.4347 5.10192 57.9011C6.89843 55.6507 7.13689 54.7044 6.53367 52.2215C5.84784 49.4043 5.95078 49.1216 8.43762 47.0166C11.0402 44.8148 11.1235 44.8209 16.4575 47.6829C23.8191 51.6316 23.9165 51.6687 24.7395 50.8453C25.1554 50.4293 23.8485 49.1582 21.6878 47.8766C17.5543 45.4238 14.4245 40.7471 15.5689 38.7349C16.5908 36.9382 18.1297 38.0928 20.0142 42.0715C21.3591 44.911 22.9668 46.3108 29.5329 50.3567C39.1489 56.2814 39.5358 55.0234 30.4918 47.2372C21.1863 39.2244 21.4 39.4536 20.5486 36.5479L19.7703 33.8898L22.5366 34.1099C24.6269 34.2764 26.504 35.3245 30.2182 38.3975C37.7255 44.6101 40.2343 45.4439 34.2713 39.7444C31.3523 36.9542 27.7117 32.7655 26.1804 30.4349L23.3978 26.1984L27.091 25.0633L30.7849 23.9287L31.074 19.5651C31.3442 15.4837 31.4949 15.1527 33.4075 14.4453C34.5538 14.0211 37.1825 14.4273 39.388 15.3691C43.4309 17.0949 44.954 16.664 43.0233 14.3409C40.9925 11.8955 41.3926 10.1481 45.0276 5.59565C46.893 3.25968 49.2467 1.1751 50.2582 0.962648C51.4015 0.723316 54.5123 1.95103 58.4835 4.20963C64.1588 7.43745 65.1617 7.7228 67.4898 6.76966C69.6196 5.89728 71.2868 6.22148 76.4195 8.50528C88.847 14.0335 115.989 29.9592 124.294 36.5945C130.531 41.579 135.845 44.8418 149.265 51.9303Z" fill="#FBDFDF"/>
<path d="M456.562 238.63C454.704 237.574 454.753 236.822 456.802 234.947C457.808 234.026 458.183 234.223 459.686 236.454C460.894 238.246 462.231 239.174 464.125 239.536C466.776 240.043 468.281 242.599 467.124 244.632C466.722 245.339 469.76 245.626 475.66 245.437C478.105 245.359 478.538 245.611 479.261 247.533C479.712 248.734 480.798 250.124 481.673 250.622C482.903 251.321 482.955 251.869 481.902 253.034C480.748 254.315 480.173 254.229 478.102 252.468C473.96 248.945 466.837 251.268 470.394 254.982C471.226 255.85 471.721 256.885 471.495 257.282C471.094 257.988 461.184 255.018 459.143 253.58C456.919 252.013 452.566 251.587 451.839 252.866C451.209 253.973 450.994 253.798 450.52 251.795C449.664 248.171 451.307 246.18 455.149 246.187C458.485 246.193 458.508 246.173 457.975 243.76C457.679 242.423 457.65 240.955 457.91 240.497C458.17 240.039 457.564 239.2 456.562 238.63Z" fill="#FBDFDF"/>
<path d="M490.525 263.493C490.726 263.39 492.996 262.053 495.571 260.522C499.53 258.168 500.387 257.991 501.12 259.374C501.597 260.275 503.149 261.35 504.569 261.764C506.498 262.327 507.17 263.038 507.223 264.573C507.282 266.276 507.668 266.611 509.468 266.522C512.564 266.37 512.632 267.325 509.894 272.601L507.47 277.271L506.789 274.13L506.108 270.989L503.456 271.839C501.998 272.306 499.82 272.52 498.616 272.313C496.708 271.986 496.645 271.834 498.125 271.131C499.144 270.645 500.144 269.318 500.626 267.808C501.258 265.825 500.982 265.039 499.323 264.095C497.36 262.979 497.086 263.127 495.298 266.271L493.38 269.644L487.322 268.009C483.991 267.109 479.728 265.833 477.851 265.173C474.753 264.084 474.533 263.804 475.47 262.156C476.222 260.834 477.256 260.509 479.281 260.963C481.669 261.496 482.369 261.16 484.257 258.569C486.694 255.225 488.596 254.883 487.275 258.026C486.692 259.414 487.01 260.611 488.294 261.863C489.321 262.864 490.325 263.597 490.525 263.493Z" fill="#FBDFDF"/>
<path d="M448.026 233.059C448.744 233.809 450.031 234.334 450.883 234.225C453.795 233.853 453.707 234.719 450.361 239.397C448.52 241.97 446.941 244.088 446.85 244.103C446.76 244.119 444.763 243.86 442.411 243.529L438.135 242.927L440.621 239.528C446.05 232.101 446.626 231.598 448.026 233.059Z" fill="#FBDFDF"/>
<path d="M515.5 273.093C515.689 272.775 516.518 272.662 517.343 272.843C520.071 273.442 523.302 275.461 523.92 276.954C524.422 278.169 523.735 278.648 519.979 279.701C515.961 280.827 515.242 280.736 513.833 278.925C512.573 277.305 512.544 276.539 513.698 275.274C514.5 274.393 515.312 273.412 515.5 273.093Z" fill="#FBDFDF"/>
<path d="M528.286 281.14C527.718 281.206 527.488 280.848 527.774 280.344C528.061 279.841 528.623 279.615 529.024 279.842C529.424 280.07 529.655 280.428 529.535 280.638C529.415 280.848 528.854 281.074 528.286 281.14Z" fill="#FBDFDF"/>
<path d="M330.32 211.482C327.709 211.363 325.172 209.921 325.222 208.582C325.248 207.891 326.592 208.247 328.732 209.514C331.333 211.053 331.73 211.545 330.32 211.482Z" fill="#FBDFDF"/>
<path d="M470.133 307.028C469.709 306.787 469.785 306.316 470.304 305.981C470.822 305.646 471.39 305.453 471.567 305.554C471.744 305.655 471.667 306.126 471.396 306.602C471.125 307.078 470.557 307.269 470.133 307.028Z" fill="#FBDFDF"/>
<path d="M477.147 313.342C474.787 313.458 475.365 312.066 478.097 311.056C479.157 310.665 480.204 310.743 480.422 311.232C480.93 312.366 479.604 313.221 477.147 313.342Z" fill="#FBDFDF"/>
<path d="M441.813 298.221C442.268 295.76 442.711 295.092 444.366 294.377C445.468 293.902 446.646 293.67 446.984 293.863C448.157 294.53 445.069 299.365 442.76 300.478C441.543 301.064 441.364 300.64 441.813 298.221Z" fill="#FBDFDF"/>
<path d="M409.99 278.517C411.26 277.109 412.582 277.288 418.743 279.706C423.593 281.609 423.789 281.769 422.601 282.857C421.964 283.439 421.181 283.767 420.861 283.585C420.541 283.403 420.008 284.13 419.676 285.2C418.998 287.389 417.475 287.071 417.599 284.768C417.723 282.452 412.083 282.468 409.365 284.79C408.154 285.825 407.047 286.75 406.907 286.847C406.766 286.944 405.766 286.758 404.686 286.433C403.327 286.025 402.683 285.045 402.595 283.247C402.472 280.746 402.581 280.638 405.572 280.312C407.279 280.126 409.267 279.318 409.99 278.517Z" fill="#FBDFDF"/>
<path d="M427.893 293.622C428.997 293.133 430.624 291.985 431.509 291.069C432.829 289.702 433.408 289.703 434.753 291.072C435.653 291.989 436.432 292.871 436.482 293.032C436.532 293.193 434.31 294.305 431.544 295.501C427.544 297.232 426.45 297.353 426.2 296.094C425.947 294.823 426.281 294.336 427.893 293.622Z" fill="#FBDFDF"/>
<path d="M478.193 324.207C477.569 323.852 477.482 323.287 478 322.952C478.518 322.617 479.25 322.518 479.627 322.733C480.005 322.947 480.091 323.512 479.821 323.987C479.55 324.463 478.817 324.562 478.193 324.207Z" fill="#FBDFDF"/>
<path d="M483.892 328.592C483.468 328.351 483.544 327.88 484.062 327.545C484.581 327.21 485.149 327.018 485.326 327.118C485.503 327.219 485.425 327.69 485.155 328.166C484.884 328.642 484.315 328.833 483.892 328.592Z" fill="#FBDFDF"/>
<path d="M439.489 314.275C440.792 312.645 442.685 310.549 443.697 309.617C444.709 308.685 445.849 308.101 446.231 308.318C446.882 308.688 447.872 312.376 447.497 313.034C446.716 314.408 444.345 315.632 441.045 316.366L437.123 317.24L439.489 314.275Z" fill="#FBDFDF"/>
<path d="M464.252 320.857C463.851 320.629 463.745 320.054 464.016 319.578C464.286 319.102 464.836 318.899 465.236 319.127C465.637 319.355 465.743 319.931 465.472 320.406C465.202 320.882 464.653 321.085 464.252 320.857Z" fill="#FBDFDF"/>
<path d="M416.796 309.397C417.634 307.922 421.43 305.261 424.869 303.738C427.376 302.626 429.613 302.301 430.659 302.896C432.496 303.941 432.985 308.047 431.568 310.538C430.591 312.255 429.197 311.966 429.651 310.14C429.811 309.493 428.835 309.932 427.482 311.114C424.472 313.745 422.35 313.738 423.041 311.099C423.693 308.607 422.712 308.07 420.479 309.7C418.986 310.789 416.137 310.555 416.796 309.397Z" fill="#FBDFDF"/>
<path d="M450.612 321.114C450.212 320.886 450.23 320.093 450.651 319.351C451.073 318.61 451.609 318.429 451.842 318.951C452.076 319.473 452.058 320.266 451.804 320.714C451.549 321.162 451.013 321.342 450.612 321.114Z" fill="#FBDFDF"/>
<path d="M446.658 360.975C448.07 359.121 449.789 357.53 450.479 357.44C453.957 356.987 456.85 361.76 454.706 364.417C453.202 366.281 451.649 365.587 452.34 363.36C453.177 360.655 451.632 359.993 450.231 362.457C448.949 364.71 446.675 365.816 445.13 364.937C444.316 364.474 444.648 363.615 446.658 360.975Z" fill="#FBDFDF"/>
<path d="M439.962 357.613C440.528 357.096 441.305 356.119 441.689 355.444C442.13 354.669 443.16 354.657 444.486 355.412C447.102 356.899 446.4 360.007 443.082 361.631C441.037 362.633 440.685 362.526 439.86 360.655C439.35 359.5 439.397 358.132 439.962 357.613Z" fill="#FBDFDF"/>
<path d="M471.693 417.827C470.915 417.384 470.501 416.633 470.771 416.158C471.042 415.682 472.102 415.77 473.127 416.352C474.184 416.953 474.583 417.676 474.049 418.021C473.53 418.356 472.471 418.269 471.693 417.827Z" fill="#FBDFDF"/>
<path d="M434.587 440.802C434.019 440.868 433.79 440.509 434.076 440.006C434.362 439.502 434.925 439.276 435.325 439.504C435.726 439.732 435.956 440.089 435.836 440.3C435.717 440.51 435.155 440.735 434.587 440.802Z" fill="#FBDFDF"/>
<path d="M376.996 477.648C375.259 477.267 374.725 475.788 376.137 475.267C377.268 474.849 378.779 475.873 378.736 477.028C378.715 477.575 377.932 477.854 376.996 477.648Z" fill="#FBDFDF"/>
<path d="M357.889 479.139C357.583 482.39 356.995 482.174 356.014 478.449C355.248 475.536 355.312 475.285 356.631 476.035C357.44 476.495 358.006 477.892 357.889 479.139Z" fill="#FBDFDF"/>
<path d="M246.526 513.08C246.589 511.405 248.923 511.576 253.899 513.619C261.059 516.558 271.743 525.041 269.836 526.273C268.802 526.942 246.481 514.307 246.526 513.08Z" fill="#FBDFDF"/>
<path d="M-113.899 311.973C-114.236 311.217 -113.622 310.803 -112.011 310.698C-109.605 310.54 -107.569 311.166 -108.003 311.929C-108.579 312.942 -113.45 312.978 -113.899 311.973Z" fill="#FBDFDF"/>
</svg>
