<svg width="42" height="42" viewBox="0 0 42 42" fill="none" xmlns="http://www.w3.org/2000/svg">
<path d="M2.96556 30.9002C1.0637 23.2735 0.11277 19.4624 2.10995 16.8979C4.10491 14.3335 8.02833 14.3335 15.8685 14.3335H26.1315C33.9739 14.3335 37.8929 14.3335 39.8901 16.8979C41.8872 19.4602 40.9363 23.2757 39.0344 30.9002C37.8242 35.7513 37.2212 38.1757 35.4169 39.589C33.6126 41.0002 31.1189 41.0002 26.1315 41.0002H15.8685C10.8811 41.0002 8.38742 41.0002 6.58309 39.589C4.77876 38.1757 4.17362 35.7513 2.96556 30.9002Z" stroke="black" stroke-width="1.5"/>
<path opacity="0.5" d="M37.6248 15.4444L36.051 9.6555C35.4437 7.42217 35.14 6.30661 34.5171 5.46439C33.8961 4.62764 33.0526 3.98306 32.0833 3.60439C31.108 3.22217 29.9553 3.22217 27.65 3.22217M4.37549 15.4444L5.94929 9.6555C6.55664 7.42217 6.86032 6.30661 7.48319 5.46439C8.10424 4.62764 8.94769 3.98306 9.91704 3.60439C10.8924 3.22217 12.045 3.22217 14.3503 3.22217" stroke="black" stroke-width="1.5"/>
<path d="M14.3501 3.22222C14.3501 2.63285 14.5836 2.06762 14.9993 1.65087C15.415 1.23413 15.9788 1 16.5667 1H25.4332C26.0211 1 26.5849 1.23413 27.0006 1.65087C27.4163 2.06762 27.6498 2.63285 27.6498 3.22222C27.6498 3.81159 27.4163 4.37682 27.0006 4.79357C26.5849 5.21032 26.0211 5.44444 25.4332 5.44444H16.5667C15.9788 5.44444 15.415 5.21032 14.9993 4.79357C14.5836 4.37682 14.3501 3.81159 14.3501 3.22222Z" stroke="black" stroke-width="1.5"/>
</svg>
