<svg width="116" height="116" viewBox="0 0 116 116" fill="none" xmlns="http://www.w3.org/2000/svg">
<path d="M66.0331 65.4143C66.6129 65.9972 67.3052 66.456 68.0679 66.7628C68.8971 67.0959 69.7844 67.2603 70.6779 67.2462C71.702 67.2752 72.7198 67.0755 73.6571 66.6616C74.5943 66.2477 75.4275 65.6301 76.0961 64.8537L73.7857 63.0895C73.3924 63.5154 72.9157 63.8557 72.3852 64.0894C71.8547 64.323 71.2817 64.445 70.7021 64.4477C69.9161 64.4853 69.1392 64.2665 68.4884 63.8242C67.9226 63.4088 67.5138 62.8143 67.3284 62.1374L67.2897 62.0214H76.85V60.9C76.8531 60.0545 76.6889 59.2168 76.3667 58.435C76.0708 57.6864 75.6307 57.0032 75.0714 56.4243C74.5104 55.8436 73.8358 55.3846 73.0897 55.0759C72.2809 54.7481 71.4152 54.5838 70.5426 54.5925C69.71 54.5896 68.8852 54.7522 68.116 55.0708C67.3469 55.3894 66.6487 55.8577 66.062 56.4485C65.4872 57.0276 65.0264 57.7097 64.7039 58.4592C64.3738 59.2419 64.2092 60.0845 64.2205 60.9338C64.2181 61.7809 64.3823 62.6201 64.7039 63.4037C65.0099 64.155 65.4617 64.8384 66.0331 65.4143ZM70.5619 57.3427C71.3107 57.2631 72.0618 57.4716 72.6624 57.9259C73.2631 58.3801 73.6682 59.0461 73.7954 59.7884H67.3284C67.4556 59.0452 67.8614 58.3785 68.4631 57.9241C69.0648 57.4697 69.8171 57.2618 70.5667 57.3427H70.5619ZM58.9667 65.9944C59.3999 66.4233 59.941 66.7272 60.5327 66.874C61.3332 67.0671 62.1551 67.1564 62.9784 67.1399H63.3699V64.1674C62.982 64.1708 62.5943 64.1466 62.2099 64.0948C61.9307 64.0674 61.6679 63.9504 61.4607 63.7614C61.2737 63.5605 61.1567 63.3044 61.1272 63.0315C61.0726 62.6409 61.05 62.2465 61.0596 61.8522V57.5892H63.3796V54.8487H61.0596V50.0975H57.8502V61.8667C57.836 62.7103 57.9236 63.5526 58.1112 64.3752C58.2456 64.982 58.5411 65.5414 58.9667 65.9944ZM78.5465 49.1598H81.751V67.0238H78.5465V49.1598ZM47.1395 60.9677V60.7453C47.0992 59.8263 47.4025 58.9252 47.9902 58.2175C48.2518 57.9413 48.5675 57.7219 48.9175 57.5731C49.2676 57.4242 49.6446 57.3491 50.025 57.3524C50.4151 57.3251 50.8062 57.3861 51.1694 57.5308C51.5326 57.6756 51.8584 57.9004 52.1227 58.1885C52.6243 58.8597 52.8726 59.6866 52.8235 60.523V66.9948H56.0619V60.0832C56.1629 58.613 55.686 57.1615 54.7327 56.0377C53.9615 55.3202 52.9959 54.8459 51.9566 54.6739C50.9173 54.502 49.8504 54.6401 48.8892 55.071C48.2641 55.3751 47.7181 55.8202 47.2942 56.3712L47.1154 56.5984V54.8438H43.9495V67.0287H47.1395V60.9677ZM38.8794 54.839H42.0935V67.0238H38.8794V54.839ZM38.7875 49.4015H42.1709V52.7848H38.7875V49.4015ZM32.4994 25.433C31.2616 26.9266 30.5922 28.8099 30.6095 30.7497V85.2552C30.5922 87.1949 31.2616 89.0783 32.4994 90.5719C33.0531 91.2485 33.7478 91.7963 34.535 92.1769C35.3222 92.5576 36.1829 92.762 37.0572 92.7758H82.1667C83.0402 92.7613 83.9 92.5566 84.6863 92.1759C85.4726 91.7953 86.1665 91.2479 86.7197 90.5719C87.9597 89.0795 88.6295 87.1953 88.6096 85.2552V30.7449C88.6303 28.8045 87.9605 26.9201 86.7197 25.4282C86.1656 24.7531 85.4715 24.2064 84.6854 23.8259C83.8993 23.4453 83.0399 23.24 82.1667 23.2242H37.0572C36.1828 23.2399 35.3222 23.4456 34.5352 23.827C33.7482 24.2085 33.0536 24.7564 32.4994 25.433ZM79.5084 27.7095C80.6313 27.7095 81.7082 28.1556 82.5023 28.9496C83.2963 29.7437 83.7424 30.8206 83.7424 31.9435V84.0517C83.7424 85.1746 83.2963 86.2515 82.5023 87.0456C81.7082 87.8396 80.6313 88.2857 79.5084 88.2857H39.7155C39.1595 88.2857 38.609 88.1762 38.0953 87.9634C37.5816 87.7506 37.1148 87.4387 36.7217 87.0456C36.3285 86.6524 36.0166 86.1857 35.8038 85.672C35.5911 85.1583 35.4815 84.6077 35.4815 84.0517V31.9435C35.4815 31.3875 35.5911 30.8369 35.8038 30.3232C36.0166 29.8095 36.3285 29.3428 36.7217 28.9496C37.1148 28.5565 37.5816 28.2446 38.0953 28.0318C38.609 27.819 39.1595 27.7095 39.7155 27.7095H79.5084ZM20.9429 56.1198H27.3857V59.8802H20.9429V56.1198ZM27.3905 30.7449C27.3612 27.8366 28.3648 25.0122 30.2229 22.7747C31.053 21.7597 32.0946 20.9381 33.275 20.3671C34.4554 19.7961 35.7461 19.4895 37.0572 19.4687H47.5262V12.8857H22.5572C22.096 12.9264 21.6689 13.1458 21.3673 13.4971C21.0656 13.8484 20.9133 14.3038 20.9429 14.7658V43.9012H27.3905V30.7449ZM58 12.8905H61.2239V19.4687H58V12.8905ZM50.75 12.8905H54.7762V19.4687H50.75V12.8905ZM20.9429 63.6405H27.3857V68.3385H20.9429V63.6405ZM20.9429 47.6615H27.3857V52.3595H20.9429V47.6615ZM96.6667 12.8905H71.6929V19.4687H82.1667C83.4777 19.4902 84.7682 19.797 85.9485 20.368C87.1288 20.9389 88.1704 21.7602 89.001 22.7747C90.8573 25.0133 91.8607 27.8369 91.8334 30.7449V43.9012H98.2762V14.7707C98.3096 14.3085 98.1593 13.8518 97.858 13.4997C97.5566 13.1477 97.1285 12.9288 96.6667 12.8905ZM91.8334 56.1198H98.2762V59.8802H91.8334V56.1198ZM91.8334 47.6615H98.2762V52.3595H91.8334V47.6615ZM30.2229 93.2253C28.3656 90.9874 27.362 88.1633 27.3905 85.2552V72.0988H20.9429V101.229C20.9121 101.692 21.0639 102.148 21.3658 102.499C21.6677 102.851 22.0955 103.07 22.5572 103.11H47.5262V96.5313H37.0572C35.7461 96.5105 34.4554 96.2039 33.275 95.6329C32.0946 95.0619 31.053 94.2403 30.2229 93.2253ZM91.8334 63.6405H98.2762V68.3385H91.8334V63.6405ZM64.4429 12.8905H68.4691V19.4687H64.4429V12.8905ZM50.75 96.5313H54.7762V103.11H50.75V96.5313ZM64.4429 96.5313H68.4691V103.11H64.4429V96.5313ZM91.8334 85.2552C91.8598 88.163 90.8565 90.9863 89.001 93.2253C88.1704 94.2398 87.1288 95.0611 85.9485 95.632C84.7682 96.203 83.4777 96.5099 82.1667 96.5313H71.6929V103.11H96.6667C97.1285 103.071 97.5566 102.852 97.858 102.5C98.1593 102.148 98.3096 101.692 98.2762 101.229V72.0988H91.8334V85.2552ZM58 96.5313H61.2239V103.11H58V96.5313Z" fill="black"/>
</svg>
