<svg width="107" height="107" viewBox="0 0 107 107" fill="none" xmlns="http://www.w3.org/2000/svg">
<path d="M83.7902 26.7793C79.8679 22.8152 75.2015 19.6645 70.0589 17.5077C64.9162 15.3509 59.3984 14.2306 53.8218 14.2109H53.5C42.1931 14.2109 31.3493 18.7026 23.354 26.6978C15.3588 34.693 10.8672 45.5368 10.8672 56.8438V80.25C10.8672 82.6888 11.836 85.0276 13.5604 86.7521C15.2849 88.4765 17.6238 89.4453 20.0625 89.4453H26.75C29.1887 89.4453 31.5276 88.4765 33.2521 86.7521C34.9765 85.0276 35.9453 82.6888 35.9453 80.25V63.5312C35.9453 61.0925 34.9765 58.7536 33.2521 57.0292C31.5276 55.3047 29.1887 54.3359 26.75 54.3359H15.9664C16.4552 47.111 19.0162 40.1801 23.3428 34.3733C27.6693 28.5664 33.578 24.1298 40.3612 21.5947C47.1444 19.0596 54.5145 18.5335 61.5891 20.0794C68.6636 21.6253 75.1425 25.1777 80.25 30.3111C86.6421 36.745 90.4762 45.2839 91.0378 54.3359H80.25C77.8112 54.3359 75.4724 55.3047 73.7479 57.0292C72.0235 58.7536 71.0547 61.0925 71.0547 63.5312V80.25C71.0547 82.6888 72.0235 85.0276 73.7479 86.7521C75.4724 88.4765 77.8112 89.4453 80.25 89.4453H86.9375C89.3763 89.4453 91.7151 88.4765 93.4396 86.7521C95.164 85.0276 96.1328 82.6888 96.1328 80.25V56.8438C96.1538 51.267 95.0744 45.7409 92.9565 40.582C90.8385 35.423 87.7236 30.7326 83.7902 26.7793ZM26.75 59.3516C27.8585 59.3516 28.9216 59.7919 29.7055 60.5758C30.4893 61.3596 30.9297 62.4227 30.9297 63.5312V80.25C30.9297 81.3585 30.4893 82.4216 29.7055 83.2055C28.9216 83.9893 27.8585 84.4297 26.75 84.4297H20.0625C18.954 84.4297 17.8909 83.9893 17.107 83.2055C16.3232 82.4216 15.8828 81.3585 15.8828 80.25V59.3516H26.75ZM91.1172 80.25C91.1172 81.3585 90.6768 82.4216 89.893 83.2055C89.1091 83.9893 88.046 84.4297 86.9375 84.4297H80.25C79.1415 84.4297 78.0784 83.9893 77.2945 83.2055C76.5107 82.4216 76.0703 81.3585 76.0703 80.25V63.5312C76.0703 62.4227 76.5107 61.3596 77.2945 60.5758C78.0784 59.7919 79.1415 59.3516 80.25 59.3516H91.1172V80.25Z" fill="black"/>
</svg>
