<svg width="95" height="95" viewBox="0 0 95 95" fill="none" xmlns="http://www.w3.org/2000/svg">
<path d="M39.5832 59.3751L60.1269 47.5001L39.5832 35.6251V59.3751ZM85.3415 28.3813C85.8561 30.2417 86.2123 32.7355 86.4498 35.9022C86.7269 39.0688 86.8457 41.8001 86.8457 44.1751L87.0832 47.5001C87.0832 56.1688 86.4498 62.5417 85.3415 66.6188C84.3519 70.1813 82.0561 72.4772 78.4936 73.4667C76.6332 73.9813 73.229 74.3376 68.004 74.5751C62.8582 74.8522 58.1478 74.9709 53.7936 74.9709L47.4998 75.2084C30.9144 75.2084 20.5832 74.5751 16.5061 73.4667C12.9436 72.4772 10.6478 70.1813 9.65817 66.6188C9.14359 64.7584 8.78734 62.2647 8.54984 59.098C8.27275 55.9313 8.154 53.2001 8.154 50.8251L7.9165 47.5001C7.9165 38.8313 8.54984 32.4584 9.65817 28.3813C10.6478 24.8188 12.9436 22.523 16.5061 21.5334C18.3665 21.0188 21.7707 20.6626 26.9957 20.4251C32.1415 20.148 36.8519 20.0292 41.2061 20.0292L47.4998 19.7917C64.0853 19.7917 74.4165 20.4251 78.4936 21.5334C82.0561 22.523 84.3519 24.8188 85.3415 28.3813Z" fill="black"/>
</svg>
