<svg width="75" height="75" viewBox="0 0 75 75" fill="none" xmlns="http://www.w3.org/2000/svg">
<path d="M37.5 6.25C20.25 6.25 6.25 20.25 6.25 37.5C6.25 54.75 20.25 68.75 37.5 68.75C54.75 68.75 68.75 54.75 68.75 37.5C68.75 20.25 54.75 6.25 37.5 6.25ZM52 27.5C51.5312 32.4375 49.5 44.4375 48.4688 49.9688C48.0312 52.3125 47.1562 53.0938 46.3438 53.1875C44.5312 53.3438 43.1562 52 41.4062 50.8438C38.6562 49.0312 37.0938 47.9062 34.4375 46.1562C31.3438 44.125 33.3438 43 35.125 41.1875C35.5938 40.7188 43.5938 33.4375 43.75 32.7812C43.7717 32.6819 43.7688 32.5787 43.7416 32.4806C43.7144 32.3826 43.6636 32.2927 43.5938 32.2188C43.4062 32.0625 43.1562 32.125 42.9375 32.1562C42.6562 32.2188 38.2812 35.125 29.75 40.875C28.5 41.7188 27.375 42.1562 26.375 42.125C25.25 42.0938 23.125 41.5 21.5312 40.9688C19.5625 40.3438 18.0312 40 18.1562 38.9062C18.2188 38.3438 19 37.7812 20.4688 37.1875C29.5938 33.2187 35.6562 30.5938 38.6875 29.3438C47.375 25.7188 49.1563 25.0938 50.3438 25.0938C50.5938 25.0938 51.1875 25.1562 51.5625 25.4687C51.875 25.7187 51.9688 26.0625 52 26.3125C51.9688 26.5 52.0312 27.0625 52 27.5Z" fill="black"/>
</svg>
