<svg width="75" height="75" viewBox="0 0 75 75" fill="none" xmlns="http://www.w3.org/2000/svg">
<path d="M24.375 6.25H50.625C60.625 6.25 68.75 14.375 68.75 24.375V50.625C68.75 55.4321 66.8404 60.0422 63.4413 63.4413C60.0422 66.8404 55.4321 68.75 50.625 68.75H24.375C14.375 68.75 6.25 60.625 6.25 50.625V24.375C6.25 19.568 8.15959 14.9578 11.5587 11.5587C14.9578 8.15959 19.568 6.25 24.375 6.25ZM23.75 12.5C20.7663 12.5 17.9048 13.6853 15.795 15.795C13.6853 17.9048 12.5 20.7663 12.5 23.75V51.25C12.5 57.4688 17.5312 62.5 23.75 62.5H51.25C54.2337 62.5 57.0952 61.3147 59.205 59.205C61.3147 57.0952 62.5 54.2337 62.5 51.25V23.75C62.5 17.5312 57.4688 12.5 51.25 12.5H23.75ZM53.9062 17.1875C54.9423 17.1875 55.9358 17.5991 56.6684 18.3316C57.401 19.0642 57.8125 20.0577 57.8125 21.0938C57.8125 22.1298 57.401 23.1233 56.6684 23.8559C55.9358 24.5884 54.9423 25 53.9062 25C52.8702 25 51.8767 24.5884 51.1441 23.8559C50.4115 23.1233 50 22.1298 50 21.0938C50 20.0577 50.4115 19.0642 51.1441 18.3316C51.8767 17.5991 52.8702 17.1875 53.9062 17.1875ZM37.5 21.875C41.644 21.875 45.6183 23.5212 48.5485 26.4515C51.4788 29.3817 53.125 33.356 53.125 37.5C53.125 41.644 51.4788 45.6183 48.5485 48.5485C45.6183 51.4788 41.644 53.125 37.5 53.125C33.356 53.125 29.3817 51.4788 26.4515 48.5485C23.5212 45.6183 21.875 41.644 21.875 37.5C21.875 33.356 23.5212 29.3817 26.4515 26.4515C29.3817 23.5212 33.356 21.875 37.5 21.875ZM37.5 28.125C35.0136 28.125 32.629 29.1127 30.8709 30.8709C29.1127 32.629 28.125 35.0136 28.125 37.5C28.125 39.9864 29.1127 42.371 30.8709 44.1291C32.629 45.8873 35.0136 46.875 37.5 46.875C39.9864 46.875 42.371 45.8873 44.1291 44.1291C45.8873 42.371 46.875 39.9864 46.875 37.5C46.875 35.0136 45.8873 32.629 44.1291 30.8709C42.371 29.1127 39.9864 28.125 37.5 28.125Z" fill="black"/>
</svg>
