<svg width="80" height="80" viewBox="0 0 80 80" fill="none" xmlns="http://www.w3.org/2000/svg">
<path d="M55.3334 19.4C53.0548 16.7987 51.7991 13.4581 51.8 10H41.5V51.3333C41.4206 53.5701 40.4763 55.6887 38.8659 57.2431C37.2556 58.7975 35.1049 59.6663 32.8667 59.6667C28.1334 59.6667 24.2 55.8 24.2 51C24.2 45.2667 29.7334 40.9667 35.4334 42.7333V32.2C23.9334 30.6667 13.8667 39.6 13.8667 51C13.8667 62.1 23.0667 70 32.8334 70C43.3 70 51.8 61.5 51.8 51V30.0333C55.9767 33.0328 60.9912 34.6422 66.1334 34.6333V24.3333C66.1334 24.3333 59.8667 24.6333 55.3334 19.4Z" fill="black"/>
</svg>
