<svg width="287" height="150" viewBox="0 0 287 150" fill="none" xmlns="http://www.w3.org/2000/svg">
<rect x="95" width="83.4856" height="83.4856" rx="10" fill="#BDA1DB"/>
<path fill-rule="evenodd" clip-rule="evenodd" d="M156.257 14.5291H117.878C116.181 14.5291 114.555 15.2636 113.355 16.571C112.155 17.8785 111.481 19.6518 111.481 21.5009V49.3881C111.481 51.2371 112.155 53.0104 113.355 54.3179C114.555 55.6254 116.181 56.3599 117.878 56.3599H156.257C157.953 56.3599 159.58 55.6254 160.78 54.3179C161.98 53.0104 162.653 51.2371 162.653 49.3881V21.5009C162.653 19.6518 161.98 17.8785 160.78 16.571C159.58 15.2636 157.953 14.5291 156.257 14.5291ZM116.599 21.5009C116.599 21.1311 116.733 20.7764 116.973 20.5149C117.213 20.2534 117.539 20.1065 117.878 20.1065H156.257C156.596 20.1065 156.922 20.2534 157.162 20.5149C157.401 20.7764 157.536 21.1311 157.536 21.5009V49.3881C157.536 49.7579 157.401 50.1126 157.162 50.3741C156.922 50.6356 156.596 50.7825 156.257 50.7825H117.878C117.539 50.7825 117.213 50.6356 116.973 50.3741C116.733 50.1126 116.599 49.7579 116.599 49.3881V21.5009Z" fill="black"/>
<path fill-rule="evenodd" clip-rule="evenodd" d="M140.905 52.1768H133.23C132.551 52.1768 131.9 52.4706 131.42 52.9936C130.94 53.5165 130.671 54.2259 130.671 54.9655V61.9373C130.671 62.6769 130.94 63.3862 131.42 63.9092C131.9 64.4322 132.551 64.726 133.23 64.726H140.905C141.584 64.726 142.235 64.4322 142.715 63.9092C143.194 63.3862 143.464 62.6769 143.464 61.9373V54.9655C143.464 54.2259 143.194 53.5165 142.715 52.9936C142.235 52.4706 141.584 52.1768 140.905 52.1768ZM134.509 60.5429V56.3598H139.626V60.5429H134.509Z" fill="black"/>
<path d="M125.554 66.1205C124.875 66.1205 124.224 65.8267 123.745 65.3037C123.265 64.7807 122.995 64.0714 122.995 63.3318C122.995 62.5921 123.265 61.8828 123.745 61.3598C124.224 60.8368 124.875 60.543 125.554 60.543H148.581C149.26 60.543 149.911 60.8368 150.39 61.3598C150.87 61.8828 151.14 62.5921 151.14 63.3318C151.14 64.0714 150.87 64.7807 150.39 65.3037C149.911 65.8267 149.26 66.1205 148.581 66.1205H125.554ZM120.437 22.8953H153.698C154.038 22.8953 154.363 23.0422 154.603 23.3037C154.843 23.5652 154.978 23.9198 154.978 24.2896V46.5994C154.978 46.9692 154.843 47.3239 154.603 47.5854C154.363 47.8469 154.038 47.9938 153.698 47.9938H120.437C120.097 47.9938 119.772 47.8469 119.532 47.5854C119.292 47.3239 119.157 46.9692 119.157 46.5994V24.2896C119.157 23.9198 119.292 23.5652 119.532 23.3037C119.772 23.0422 120.097 22.8953 120.437 22.8953Z" fill="black"/>
<path d="M5.056 105.024C5.056 103.019 5.80267 101.461 7.296 100.352C8.78933 99.2 10.9013 98.624 13.632 98.624V138.176C13.632 140.224 12.8853 141.803 11.392 142.912C9.89867 144.021 7.78667 144.576 5.056 144.576V105.024ZM22.401 103.104C22.401 101.995 22.8063 101.077 23.617 100.352C24.4277 99.584 25.4517 99.2 26.689 99.2H43.777C48.385 99.2 51.9477 100.416 54.465 102.848C57.025 105.28 58.305 108.693 58.305 113.088C58.305 115.605 57.793 117.739 56.769 119.488C55.745 121.195 54.1877 122.56 52.097 123.584V123.776C55.8517 125.44 57.729 128.597 57.729 133.248V138.24C57.729 140.288 57.0037 141.867 55.553 142.976C54.1023 144.043 51.969 144.576 49.153 144.576V133.632C49.153 131.371 48.705 129.707 47.809 128.64C46.913 127.573 45.5477 127.04 43.713 127.04H30.849V138.24C30.849 140.331 30.1237 141.909 28.673 142.976C27.265 144.043 25.1743 144.576 22.401 144.576V103.104ZM43.329 119.744C45.377 119.744 46.9557 119.168 48.065 118.016C49.1743 116.821 49.729 115.157 49.729 113.024C49.729 108.672 47.5957 106.496 43.329 106.496H30.849V119.744H43.329ZM82.6275 144.576C79.1288 144.576 75.9288 143.893 73.0275 142.528C70.1262 141.12 67.8222 139.221 66.1155 136.832C64.4515 134.443 63.6195 131.84 63.6195 129.024V114.112C63.6195 111.296 64.4515 108.715 66.1155 106.368C67.8222 103.979 70.1262 102.101 73.0275 100.736C75.9288 99.328 79.1288 98.624 82.6275 98.624C86.1262 98.624 89.3262 99.328 92.2275 100.736C95.1715 102.101 97.4755 103.979 99.1395 106.368C100.846 108.715 101.7 111.296 101.7 114.112V129.024C101.7 131.84 100.846 134.443 99.1395 136.832C97.4755 139.221 95.1715 141.12 92.2275 142.528C89.3262 143.893 86.1262 144.576 82.6275 144.576ZM82.6275 137.088C85.8275 137.088 88.3875 136.341 90.3075 134.848C92.2275 133.312 93.1875 131.328 93.1875 128.896V114.304C93.1875 111.829 92.2275 109.845 90.3075 108.352C88.3875 106.816 85.8275 106.048 82.6275 106.048C79.4702 106.048 76.9315 106.816 75.0115 108.352C73.0915 109.845 72.1315 111.829 72.1315 114.304V128.896C72.1315 131.328 73.0915 133.312 75.0115 134.848C76.9315 136.341 79.4702 137.088 82.6275 137.088ZM107.901 105.408C107.901 103.317 108.605 101.675 110.013 100.48C111.421 99.2427 113.32 98.624 115.709 98.624L137.341 132.416L137.981 131.904L135.357 127.552V98.624C138.13 98.624 140.221 99.1573 141.629 100.224C143.08 101.291 143.805 102.869 143.805 104.96V138.752C143.805 140.331 143.122 141.696 141.757 142.848C140.434 144 138.898 144.576 137.149 144.576L114.365 108.928L113.725 109.504L116.349 113.856V138.24C116.349 140.331 115.624 141.909 114.173 142.976C112.765 144.043 110.674 144.576 107.901 144.576V105.408ZM171.564 132.928H152.876C151.767 132.928 150.892 132.629 150.252 132.032C149.612 131.435 149.292 130.645 149.292 129.664C149.292 128.555 149.591 127.68 150.188 127.04L172.652 99.968C172.993 99.5413 173.505 99.2213 174.188 99.008C174.871 98.752 175.596 98.624 176.364 98.624C177.473 98.624 178.391 98.9867 179.116 99.712C179.841 100.395 180.204 101.269 180.204 102.336V125.632H187.564C187.564 128.192 187.116 130.048 186.22 131.2C185.367 132.352 184.001 132.928 182.124 132.928H180.204V139.136C180.204 141.013 179.5 142.4 178.092 143.296C176.727 144.149 174.551 144.576 171.564 144.576V132.928ZM172.076 125.632V112.768L174.444 109.632L173.932 109.312L160.492 125.632H172.076ZM193.151 103.104C193.151 101.995 193.556 101.077 194.367 100.352C195.178 99.584 196.202 99.2 197.439 99.2H215.231C218.303 99.2 221.012 99.8187 223.359 101.056C225.748 102.251 227.583 103.979 228.863 106.24C230.186 108.459 230.847 111.04 230.847 113.984C230.847 116.971 230.207 119.595 228.927 121.856C227.647 124.075 225.834 125.803 223.487 127.04C221.14 128.235 218.388 128.832 215.231 128.832H201.727V138.24C201.727 140.288 200.98 141.867 199.487 142.976C198.036 144.043 195.924 144.576 193.151 144.576V103.104ZM215.231 121.408C217.492 121.408 219.242 120.747 220.479 119.424C221.716 118.101 222.335 116.267 222.335 113.92C222.335 111.616 221.695 109.824 220.415 108.544C219.178 107.264 217.45 106.624 215.231 106.624H201.727V121.408H215.231ZM253.833 144.576C250.036 144.576 246.644 143.851 243.657 142.4C240.713 140.949 238.409 138.923 236.745 136.32C235.081 133.717 234.249 130.752 234.249 127.424V115.648C234.249 112.32 235.06 109.376 236.681 106.816C238.345 104.213 240.628 102.208 243.529 100.8C246.43 99.3493 249.758 98.624 253.513 98.624C257.268 98.624 260.596 99.2 263.497 100.352C266.441 101.461 268.724 103.04 270.345 105.088C271.966 107.093 272.777 109.397 272.777 112C272.777 113.579 272.244 114.837 271.177 115.776C270.153 116.672 268.766 117.12 267.017 117.12C266.164 117.12 265.225 116.992 264.201 116.736C264.286 115.712 264.329 114.709 264.329 113.728C264.329 111.467 263.326 109.632 261.321 108.224C259.316 106.816 256.713 106.112 253.513 106.112C250.356 106.112 247.774 107.008 245.769 108.8C243.806 110.549 242.825 112.832 242.825 115.648V127.424C242.825 130.283 243.849 132.608 245.897 134.4C247.945 136.192 250.59 137.088 253.833 137.088C257.033 137.088 259.636 136.384 261.641 134.976C263.646 133.568 264.649 131.755 264.649 129.536C264.649 128.512 264.606 127.531 264.521 126.592C265.588 126.379 266.484 126.272 267.209 126.272C269.001 126.272 270.43 126.741 271.497 127.68C272.564 128.619 273.097 129.899 273.097 131.52C273.097 134.037 272.286 136.299 270.665 138.304C269.044 140.267 266.761 141.803 263.817 142.912C260.916 144.021 257.588 144.576 253.833 144.576Z" fill="black"/>
</svg>
