<svg width="389" height="88" viewBox="0 0 389 88" fill="none" xmlns="http://www.w3.org/2000/svg">
<rect y="4" width="83.4856" height="83.4856" rx="10" fill="#BDA1DB"/>
<path fill-rule="evenodd" clip-rule="evenodd" d="M61.257 18.5291H22.8779C21.1815 18.5291 19.5545 19.2636 18.3549 20.571C17.1554 21.8785 16.4814 23.6518 16.4814 25.5009V53.3881C16.4814 55.2371 17.1554 57.0104 18.3549 58.3179C19.5545 59.6254 21.1815 60.3599 22.8779 60.3599H61.257C62.9534 60.3599 64.5804 59.6254 65.78 58.3179C66.9796 57.0104 67.6535 55.2371 67.6535 53.3881V25.5009C67.6535 23.6518 66.9796 21.8785 65.78 20.571C64.5804 19.2636 62.9534 18.5291 61.257 18.5291ZM21.5986 25.5009C21.5986 25.1311 21.7334 24.7764 21.9733 24.5149C22.2133 24.2534 22.5387 24.1065 22.8779 24.1065H61.257C61.5963 24.1065 61.9217 24.2534 62.1616 24.5149C62.4015 24.7764 62.5363 25.1311 62.5363 25.5009V53.3881C62.5363 53.7579 62.4015 54.1126 62.1616 54.3741C61.9217 54.6356 61.5963 54.7825 61.257 54.7825H22.8779C22.5387 54.7825 22.2133 54.6356 21.9733 54.3741C21.7334 54.1126 21.5986 53.7579 21.5986 53.3881V25.5009Z" fill="black"/>
<path fill-rule="evenodd" clip-rule="evenodd" d="M45.9053 56.1768H38.2295C37.5509 56.1768 36.9001 56.4706 36.4203 56.9936C35.9405 57.5165 35.6709 58.2259 35.6709 58.9655V65.9373C35.6709 66.6769 35.9405 67.3862 36.4203 67.9092C36.9001 68.4322 37.5509 68.726 38.2295 68.726H45.9053C46.5839 68.726 47.2347 68.4322 47.7145 67.9092C48.1943 67.3862 48.4639 66.6769 48.4639 65.9373V58.9655C48.4639 58.2259 48.1943 57.5165 47.7145 56.9936C47.2347 56.4706 46.5839 56.1768 45.9053 56.1768ZM39.5088 64.5429V60.3598H44.626V64.5429H39.5088Z" fill="black"/>
<path d="M30.5537 70.1205C29.8751 70.1205 29.2244 69.8267 28.7445 69.3037C28.2647 68.7807 27.9951 68.0714 27.9951 67.3318C27.9951 66.5921 28.2647 65.8828 28.7445 65.3598C29.2244 64.8368 29.8751 64.543 30.5537 64.543H53.5811C54.2597 64.543 54.9105 64.8368 55.3904 65.3598C55.8702 65.8828 56.1397 66.5921 56.1397 67.3318C56.1397 68.0714 55.8702 68.7807 55.3904 69.3037C54.9105 69.8267 54.2597 70.1205 53.5811 70.1205H30.5537ZM25.4365 26.8953H58.6984C59.0376 26.8953 59.363 27.0422 59.603 27.3037C59.8429 27.5652 59.9777 27.9198 59.9777 28.2896V50.5994C59.9777 50.9692 59.8429 51.3239 59.603 51.5854C59.363 51.8469 59.0376 51.9938 58.6984 51.9938H25.4365C25.0972 51.9938 24.7718 51.8469 24.5319 51.5854C24.292 51.3239 24.1572 50.9692 24.1572 50.5994V28.2896C24.1572 27.9198 24.292 27.5652 24.5319 27.3037C24.7718 27.0422 25.0972 26.8953 25.4365 26.8953Z" fill="black"/>
<path d="M107.056 28.024C107.056 26.0187 107.803 24.4613 109.296 23.352C110.789 22.2 112.901 21.624 115.632 21.624V61.176C115.632 63.224 114.885 64.8027 113.392 65.912C111.899 67.0213 109.787 67.576 107.056 67.576V28.024ZM124.401 26.104C124.401 24.9947 124.806 24.0773 125.617 23.352C126.428 22.584 127.452 22.2 128.689 22.2H145.777C150.385 22.2 153.948 23.416 156.465 25.848C159.025 28.28 160.305 31.6933 160.305 36.088C160.305 38.6053 159.793 40.7387 158.769 42.488C157.745 44.1947 156.188 45.56 154.097 46.584V46.776C157.852 48.44 159.729 51.5973 159.729 56.248V61.24C159.729 63.288 159.004 64.8667 157.553 65.976C156.102 67.0427 153.969 67.576 151.153 67.576V56.632C151.153 54.3707 150.705 52.7067 149.809 51.64C148.913 50.5733 147.548 50.04 145.713 50.04H132.849V61.24C132.849 63.3307 132.124 64.9093 130.673 65.976C129.265 67.0427 127.174 67.576 124.401 67.576V26.104ZM145.329 42.744C147.377 42.744 148.956 42.168 150.065 41.016C151.174 39.8213 151.729 38.1573 151.729 36.024C151.729 31.672 149.596 29.496 145.329 29.496H132.849V42.744H145.329ZM184.628 67.576C181.129 67.576 177.929 66.8933 175.028 65.528C172.126 64.12 169.822 62.2213 168.116 59.832C166.452 57.4427 165.62 54.84 165.62 52.024V37.112C165.62 34.296 166.452 31.7147 168.116 29.368C169.822 26.9787 172.126 25.1013 175.028 23.736C177.929 22.328 181.129 21.624 184.628 21.624C188.126 21.624 191.326 22.328 194.228 23.736C197.172 25.1013 199.476 26.9787 201.14 29.368C202.846 31.7147 203.7 34.296 203.7 37.112V52.024C203.7 54.84 202.846 57.4427 201.14 59.832C199.476 62.2213 197.172 64.12 194.228 65.528C191.326 66.8933 188.126 67.576 184.628 67.576ZM184.628 60.088C187.828 60.088 190.388 59.3413 192.308 57.848C194.228 56.312 195.188 54.328 195.188 51.896V37.304C195.188 34.8293 194.228 32.8453 192.308 31.352C190.388 29.816 187.828 29.048 184.628 29.048C181.47 29.048 178.932 29.816 177.012 31.352C175.092 32.8453 174.132 34.8293 174.132 37.304V51.896C174.132 54.328 175.092 56.312 177.012 57.848C178.932 59.3413 181.47 60.088 184.628 60.088ZM209.901 28.408C209.901 26.3173 210.605 24.6747 212.013 23.48C213.421 22.2427 215.32 21.624 217.709 21.624L239.341 55.416L239.981 54.904L237.357 50.552V21.624C240.13 21.624 242.221 22.1573 243.629 23.224C245.08 24.2907 245.805 25.8693 245.805 27.96V61.752C245.805 63.3307 245.122 64.696 243.757 65.848C242.434 67 240.898 67.576 239.149 67.576L216.365 31.928L215.725 32.504L218.349 36.856V61.24C218.349 63.3307 217.624 64.9093 216.173 65.976C214.765 67.0427 212.674 67.576 209.901 67.576V28.408ZM273.564 55.928H254.876C253.767 55.928 252.892 55.6293 252.252 55.032C251.612 54.4347 251.292 53.6453 251.292 52.664C251.292 51.5547 251.591 50.68 252.188 50.04L274.652 22.968C274.993 22.5413 275.505 22.2213 276.188 22.008C276.871 21.752 277.596 21.624 278.364 21.624C279.473 21.624 280.391 21.9867 281.116 22.712C281.841 23.3947 282.204 24.2693 282.204 25.336V48.632H289.564C289.564 51.192 289.116 53.048 288.22 54.2C287.367 55.352 286.001 55.928 284.124 55.928H282.204V62.136C282.204 64.0133 281.5 65.4 280.092 66.296C278.727 67.1493 276.551 67.576 273.564 67.576V55.928ZM274.076 48.632V35.768L276.444 32.632L275.932 32.312L262.492 48.632H274.076ZM295.151 26.104C295.151 24.9947 295.556 24.0773 296.367 23.352C297.178 22.584 298.202 22.2 299.439 22.2H317.231C320.303 22.2 323.012 22.8187 325.359 24.056C327.748 25.2507 329.583 26.9787 330.863 29.24C332.186 31.4587 332.847 34.04 332.847 36.984C332.847 39.9707 332.207 42.5947 330.927 44.856C329.647 47.0747 327.834 48.8027 325.487 50.04C323.14 51.2347 320.388 51.832 317.231 51.832H303.727V61.24C303.727 63.288 302.98 64.8667 301.487 65.976C300.036 67.0427 297.924 67.576 295.151 67.576V26.104ZM317.231 44.408C319.492 44.408 321.242 43.7467 322.479 42.424C323.716 41.1013 324.335 39.2667 324.335 36.92C324.335 34.616 323.695 32.824 322.415 31.544C321.178 30.264 319.45 29.624 317.231 29.624H303.727V44.408H317.231ZM355.833 67.576C352.036 67.576 348.644 66.8507 345.657 65.4C342.713 63.9493 340.409 61.9227 338.745 59.32C337.081 56.7173 336.249 53.752 336.249 50.424V38.648C336.249 35.32 337.06 32.376 338.681 29.816C340.345 27.2133 342.628 25.208 345.529 23.8C348.43 22.3493 351.758 21.624 355.513 21.624C359.268 21.624 362.596 22.2 365.497 23.352C368.441 24.4613 370.724 26.04 372.345 28.088C373.966 30.0933 374.777 32.3973 374.777 35C374.777 36.5787 374.244 37.8373 373.177 38.776C372.153 39.672 370.766 40.12 369.017 40.12C368.164 40.12 367.225 39.992 366.201 39.736C366.286 38.712 366.329 37.7093 366.329 36.728C366.329 34.4667 365.326 32.632 363.321 31.224C361.316 29.816 358.713 29.112 355.513 29.112C352.356 29.112 349.774 30.008 347.769 31.8C345.806 33.5493 344.825 35.832 344.825 38.648V50.424C344.825 53.2827 345.849 55.608 347.897 57.4C349.945 59.192 352.59 60.088 355.833 60.088C359.033 60.088 361.636 59.384 363.641 57.976C365.646 56.568 366.649 54.7547 366.649 52.536C366.649 51.512 366.606 50.5307 366.521 49.592C367.588 49.3787 368.484 49.272 369.209 49.272C371.001 49.272 372.43 49.7413 373.497 50.68C374.564 51.6187 375.097 52.8987 375.097 54.52C375.097 57.0373 374.286 59.2987 372.665 61.304C371.044 63.2667 368.761 64.8027 365.817 65.912C362.916 67.0213 359.588 67.576 355.833 67.576Z" fill="black"/>
</svg>
