<svg width="89" height="89" viewBox="0 0 89 89" fill="none" xmlns="http://www.w3.org/2000/svg">
<g clip-path="url(#clip0_24_15)">
<path opacity="0.2" fill-rule="evenodd" clip-rule="evenodd" d="M8.8999 20.025C8.8999 18.2547 9.60316 16.5568 10.855 15.305C12.1068 14.0532 13.8046 13.35 15.5749 13.35H82.3249C84.0952 13.35 85.793 14.0532 87.0448 15.305C88.2966 16.5568 88.9999 18.2547 88.9999 20.025V64.525C88.9999 66.2953 88.2966 67.9931 87.0448 69.2449C85.793 70.4967 84.0952 71.2 82.3249 71.2H60.0749V82.325C60.076 82.7001 60.0296 83.0739 59.937 83.4375H68.9749C69.565 83.4375 70.1309 83.6719 70.5482 84.0892C70.9655 84.5064 71.1999 85.0724 71.1999 85.6625C71.1999 86.2526 70.9655 86.8185 70.5482 87.2358C70.1309 87.6531 69.565 87.8875 68.9749 87.8875H28.9249C28.3348 87.8875 27.7689 87.6531 27.3516 87.2358C26.9343 86.8185 26.6999 86.2526 26.6999 85.6625C26.6999 85.0724 26.9343 84.5064 27.3516 84.0892C27.7689 83.6719 28.3348 83.4375 28.9249 83.4375H37.9629C37.8703 83.0739 37.8239 82.7001 37.8249 82.325V71.2H15.5749C13.8046 71.2 12.1068 70.4967 10.855 69.2449C9.60316 67.9931 8.8999 66.2953 8.8999 64.525V20.025Z" fill="black"/>
<path fill-rule="evenodd" clip-rule="evenodd" d="M77.8751 6.67499H11.1251C8.76467 6.67499 6.50092 7.61266 4.83185 9.28174C3.16277 10.9508 2.2251 13.2146 2.2251 15.575V60.075C2.2251 62.4354 3.16277 64.6992 4.83185 66.3682C6.50092 68.0373 8.76467 68.975 11.1251 68.975H77.8751C80.2355 68.975 82.4993 68.0373 84.1684 66.3682C85.8374 64.6992 86.7751 62.4354 86.7751 60.075V15.575C86.7751 13.2146 85.8374 10.9508 84.1684 9.28174C82.4993 7.61266 80.2355 6.67499 77.8751 6.67499ZM6.6751 15.575C6.6751 14.3948 7.14394 13.2629 7.97847 12.4284C8.81301 11.5938 9.94488 11.125 11.1251 11.125H77.8751C79.0553 11.125 80.1872 11.5938 81.0217 12.4284C81.8563 13.2629 82.3251 14.3948 82.3251 15.575V60.075C82.3251 61.2552 81.8563 62.3871 81.0217 63.2216C80.1872 64.0561 79.0553 64.525 77.8751 64.525H11.1251C9.94488 64.525 8.81301 64.0561 7.97847 63.2216C7.14394 62.3871 6.6751 61.2552 6.6751 60.075V15.575Z" fill="black"/>
<path d="M44.5001 62.3C43.6149 62.3 42.766 61.9484 42.1401 61.3225C41.5142 60.6966 41.1626 59.8477 41.1626 58.9625C41.1626 58.0773 41.5142 57.2284 42.1401 56.6025C42.766 55.9766 43.6149 55.625 44.5001 55.625C45.3853 55.625 46.2342 55.9766 46.8601 56.6025C47.486 57.2284 47.8376 58.0773 47.8376 58.9625C47.8376 59.8477 47.486 60.6966 46.8601 61.3225C46.2342 61.9484 45.3853 62.3 44.5001 62.3Z" fill="black"/>
<path fill-rule="evenodd" clip-rule="evenodd" d="M51.175 64.525H37.825C36.6448 64.525 35.5129 64.9938 34.6784 65.8283C33.8438 66.6629 33.375 67.7947 33.375 68.975V80.1C33.375 81.2802 33.8438 82.4121 34.6784 83.2466C35.5129 84.0811 36.6448 84.55 37.825 84.55H51.175C52.3552 84.55 53.4871 84.0811 54.3216 83.2466C55.1562 82.4121 55.625 81.2802 55.625 80.1V68.975C55.625 67.7947 55.1562 66.6629 54.3216 65.8283C53.4871 64.9938 52.3552 64.525 51.175 64.525ZM37.825 80.1V68.975H51.175V80.1H37.825Z" fill="black"/>
<path d="M24.475 84.55C23.8849 84.55 23.319 84.3156 22.9017 83.8983C22.4844 83.481 22.25 82.9151 22.25 82.325C22.25 81.7349 22.4844 81.1689 22.9017 80.7517C23.319 80.3344 23.8849 80.1 24.475 80.1H64.525C65.1151 80.1 65.681 80.3344 66.0983 80.7517C66.5156 81.1689 66.75 81.7349 66.75 82.325C66.75 82.9151 66.5156 83.481 66.0983 83.8983C65.681 84.3156 65.1151 84.55 64.525 84.55H24.475Z" fill="black"/>
<path fill-rule="evenodd" clip-rule="evenodd" d="M84.5502 53.4H4.4502V48.95H84.5502V53.4Z" fill="black"/>
</g>
<defs>
<clipPath id="clip0_24_15">
<rect width="89" height="89" fill="white"/>
</clipPath>
</defs>
</svg>
