<svg width="152" height="78" viewBox="0 0 152 78" fill="none" xmlns="http://www.w3.org/2000/svg">
<path d="M14.625 46.3125C12.6856 46.3125 10.8256 45.5421 9.45428 44.1707C8.08292 42.7994 7.3125 40.9394 7.3125 39C7.3125 37.0606 8.08292 35.2006 9.45428 33.8293C10.8256 32.4579 12.6856 31.6875 14.625 31.6875C16.5644 31.6875 18.4244 32.4579 19.7957 33.8293C21.1671 35.2006 21.9375 37.0606 21.9375 39C21.9375 40.9394 21.1671 42.7994 19.7957 44.1707C18.4244 45.5421 16.5644 46.3125 14.625 46.3125Z" fill="#CE4CDA"/>
<path d="M34.1418 44.4832C35.5131 45.8546 37.3731 46.625 39.3125 46.625C41.2519 46.625 43.1119 45.8546 44.4832 44.4832C45.8546 43.1119 46.625 41.2519 46.625 39.3125C46.625 37.3731 45.8546 35.5131 44.4832 34.1418C43.1119 32.7704 41.2519 32 39.3125 32C37.3731 32 35.5131 32.7704 34.1418 34.1418C32.7704 35.5131 32 37.3731 32 39.3125C32 41.2519 32.7704 43.1119 34.1418 44.4832Z" fill="#CFCEEA"/>
<path d="M58.5168 44.4832C59.8881 45.8546 61.7481 46.625 63.6875 46.625C65.6269 46.625 67.4869 45.8546 68.8582 44.4832C70.2296 43.1119 71 41.2519 71 39.3125C71 37.3731 70.2296 35.5131 68.8582 34.1418C67.4869 32.7704 65.6269 32 63.6875 32C61.7481 32 59.8881 32.7704 58.5168 34.1418C57.1454 35.5131 56.375 37.3731 56.375 39.3125C56.375 41.2519 57.1454 43.1119 58.5168 44.4832Z" fill="#CFCEEA"/>
<path d="M88.625 46.3125C86.6856 46.3125 84.8256 45.5421 83.4543 44.1707C82.0829 42.7994 81.3125 40.9394 81.3125 39C81.3125 37.0606 82.0829 35.2006 83.4543 33.8293C84.8256 32.4579 86.6856 31.6875 88.625 31.6875C90.5644 31.6875 92.4244 32.4579 93.7957 33.8293C95.1671 35.2006 95.9375 37.0606 95.9375 39C95.9375 40.9394 95.1671 42.7994 93.7957 44.1707C92.4244 45.5421 90.5644 46.3125 88.625 46.3125ZM113 46.3125C111.061 46.3125 109.201 45.5421 107.829 44.1707C106.458 42.7994 105.688 40.9394 105.688 39C105.688 37.0606 106.458 35.2006 107.829 33.8293C109.201 32.4579 111.061 31.6875 113 31.6875C114.939 31.6875 116.799 32.4579 118.171 33.8293C119.542 35.2006 120.312 37.0606 120.312 39C120.312 40.9394 119.542 42.7994 118.171 44.1707C116.799 45.5421 114.939 46.3125 113 46.3125ZM137.375 46.3125C135.436 46.3125 133.576 45.5421 132.204 44.1707C130.833 42.7994 130.062 40.9394 130.062 39C130.062 37.0606 130.833 35.2006 132.204 33.8293C133.576 32.4579 135.436 31.6875 137.375 31.6875C139.314 31.6875 141.174 32.4579 142.546 33.8293C143.917 35.2006 144.688 37.0606 144.688 39C144.688 40.9394 143.917 42.7994 142.546 44.1707C141.174 45.5421 139.314 46.3125 137.375 46.3125Z" fill="#CFCEEA"/>
</svg>
