<svg width="95" height="95" viewBox="0 0 95 95" fill="none" xmlns="http://www.w3.org/2000/svg">
<g clip-path="url(#clip0_25_5)">
<path d="M60.1665 91.8334H85.4998C87.1795 91.8334 88.7905 91.1661 89.9782 89.9784C91.1659 88.7906 91.8332 87.1797 91.8332 85.5V9.50002C91.8332 7.82032 91.1659 6.20941 89.9782 5.02168C88.7905 3.83395 87.1795 3.16669 85.4998 3.16669H60.1665C58.4868 3.16669 56.8759 3.83395 55.6882 5.02168C54.5004 6.20941 53.8332 7.82032 53.8332 9.50002V85.5C53.8332 87.1797 54.5004 88.7906 55.6882 89.9784C56.8759 91.1661 58.4868 91.8334 60.1665 91.8334ZM60.1665 91.8334H25.3332M41.1665 72.8334V91.8334M53.8332 34.8334H91.8332M63.3332 72.8334H82.3332M9.49984 22.1667H53.8332V72.8334H9.49984C7.82013 72.8334 6.20922 72.1661 5.02149 70.9784C3.83376 69.7906 3.1665 68.1797 3.1665 66.5V28.5C3.1665 26.8203 3.83376 25.2094 5.02149 24.0217C6.20922 22.8339 7.82013 22.1667 9.49984 22.1667Z" stroke="black" stroke-width="5"/>
</g>
<defs>
<clipPath id="clip0_25_5">
<rect width="95" height="95" fill="white"/>
</clipPath>
</defs>
</svg>
