<svg width="1903" height="1271" viewBox="0 0 1903 1271" fill="none" xmlns="http://www.w3.org/2000/svg">
<rect width="1903" height="1270.47" fill="#BDA1DB"/>
<g clip-path="url(#clip0_143_7)">
<path d="M1676.32 249.593C1680.17 243.929 1686.15 239.994 1692.95 238.656C1699.75 237.318 1706.82 238.685 1712.59 242.457L2017.39 441.571C2023.16 445.343 2027.17 451.21 2028.54 457.883C2029.9 464.556 2028.51 471.487 2024.66 477.152C2020.82 482.817 2014.83 486.751 2008.03 488.089C2001.23 489.428 1994.17 488.06 1988.39 484.288L1683.6 285.175C1677.82 281.403 1673.81 275.535 1672.45 268.862C1671.08 262.189 1672.48 255.258 1676.32 249.593ZM1734.31 164.158C1738.15 158.493 1744.13 154.559 1750.94 153.22C1757.74 151.882 1764.8 153.249 1770.58 157.021L2075.37 356.135C2081.15 359.907 2085.16 365.775 2086.52 372.448C2087.89 379.12 2086.49 386.051 2082.65 391.716C2078.8 397.381 2072.82 401.315 2066.02 402.654C2059.22 403.992 2052.15 402.625 2046.38 398.853L1741.58 199.739C1735.81 195.967 1731.8 190.099 1730.43 183.426C1729.07 176.754 1730.46 169.822 1734.31 164.158ZM1792.71 818.894C1788.86 824.559 1787.47 831.49 1788.84 838.163C1790.2 844.836 1794.21 850.704 1799.98 854.476C1805.76 858.248 1812.82 859.615 1819.62 858.277C1826.43 856.938 1832.41 853.004 1836.25 847.339L2010.22 591.032C2014.06 585.368 2015.45 578.436 2014.09 571.764C2012.73 565.091 2008.72 559.223 2002.94 555.451C1997.17 551.679 1990.1 550.312 1983.3 551.65C1976.5 552.988 1970.52 556.923 1966.67 562.588L1792.71 818.894ZM1879.79 875.784C1875.95 881.449 1874.56 888.38 1875.92 895.053C1877.28 901.726 1881.29 907.593 1887.07 911.365C1892.84 915.137 1899.91 916.505 1906.71 915.166C1913.51 913.828 1919.49 909.894 1923.34 904.229L2097.3 647.922C2101.15 642.257 2102.54 635.326 2101.17 628.653C2099.81 621.98 2095.8 616.113 2090.03 612.341C2084.25 608.569 2077.19 607.201 2070.39 608.54C2063.58 609.878 2057.6 613.812 2053.76 619.477L1879.79 875.784ZM1531.4 555.704C1523.71 567.034 1520.93 580.896 1523.65 594.241C1526.38 607.587 1534.4 619.323 1545.95 626.867L1531.45 648.226C1527.61 653.89 1526.22 660.821 1527.58 667.494C1528.94 674.167 1532.95 680.035 1538.73 683.807C1544.5 687.579 1551.57 688.946 1558.37 687.608C1565.17 686.269 1571.15 682.335 1575 676.67L1589.49 655.311L1633.04 683.756L1618.54 705.115C1614.69 710.78 1613.3 717.711 1614.67 724.384C1616.03 731.057 1620.04 736.925 1625.81 740.697C1631.59 744.469 1638.65 745.836 1645.45 744.497C1652.26 743.159 1658.24 739.225 1662.08 733.56L1676.58 712.201C1688.13 719.745 1702.26 722.48 1715.86 719.803C1729.46 717.126 1741.43 709.258 1749.12 697.928L1770.89 712.151C1776.66 715.923 1783.73 717.29 1790.53 715.951C1797.33 714.613 1803.31 710.679 1807.15 705.014C1811 699.349 1812.39 692.418 1811.03 685.745C1809.66 679.073 1805.65 673.205 1799.88 669.433L1778.11 655.21L1807.1 612.492L1828.87 626.715C1834.65 630.487 1841.71 631.854 1848.52 630.516C1855.32 629.177 1861.3 625.243 1865.14 619.578C1868.99 613.914 1870.38 606.982 1869.02 600.31C1867.65 593.637 1863.64 587.769 1857.87 583.997L1836.1 569.775C1843.79 558.445 1846.57 544.583 1843.85 531.237C1841.12 517.892 1833.1 506.156 1821.55 498.612L1836.05 477.253C1839.89 471.588 1841.28 464.657 1839.92 457.984C1838.56 451.312 1834.55 445.444 1828.77 441.672C1823 437.9 1815.93 436.533 1809.13 437.871C1802.33 439.209 1796.35 443.144 1792.5 448.808L1778.01 470.167L1734.46 441.722L1748.96 420.363C1752.81 414.699 1754.2 407.768 1752.83 401.095C1751.47 394.422 1747.46 388.554 1741.69 384.782C1735.91 381.01 1728.85 379.643 1722.05 380.981C1715.24 382.32 1709.26 386.254 1705.42 391.919L1690.92 413.278C1679.37 405.734 1665.24 402.999 1651.64 405.676C1638.04 408.353 1626.07 416.221 1618.38 427.551L1596.61 413.328C1590.84 409.556 1583.77 408.189 1576.97 409.527C1570.17 410.866 1564.19 414.8 1560.35 420.465C1556.5 426.129 1555.11 433.061 1556.47 439.733C1557.84 446.406 1561.85 452.274 1567.62 456.046L1589.39 470.268L1560.4 512.986L1538.63 498.764C1532.85 494.992 1525.79 493.625 1518.98 494.963C1512.18 496.301 1506.2 500.236 1502.36 505.9C1498.51 511.565 1497.12 518.496 1498.48 525.169C1499.85 531.842 1503.86 537.71 1509.63 541.482L1531.4 555.704ZM1574.95 584.149L1661.93 455.995L1792.55 541.33L1705.57 669.483L1574.95 584.149ZM2068.2 505.597C2064.36 511.261 2062.96 518.193 2064.33 524.865C2065.69 531.538 2069.7 537.406 2075.48 541.178L2119.02 569.623C2124.79 573.395 2131.86 574.762 2138.66 573.424C2145.46 572.085 2151.44 568.151 2155.29 562.486L2213.28 477.051C2217.12 471.386 2218.51 464.455 2217.15 457.782C2215.79 451.109 2211.78 445.241 2206 441.469L2162.46 413.025C2156.69 409.252 2149.62 407.885 2142.82 409.224C2136.02 410.562 2130.04 414.496 2126.19 420.161L2068.2 505.597Z" fill="#CE4CDA"/>
<path d="M1371.88 698.131C1348.79 683.042 1332.75 659.571 1327.29 632.88C1321.83 606.189 1327.41 578.464 1342.79 555.805L1661.72 85.9091C1677.1 63.2502 1701.02 47.513 1728.23 42.1596C1755.44 36.8062 1783.7 42.275 1806.79 57.3631L2285.76 370.256C2308.86 385.344 2324.9 408.815 2330.36 435.507C2335.81 462.198 2330.24 489.922 2314.86 512.581L1995.92 982.477C1980.55 1005.14 1956.62 1020.87 1929.41 1026.23C1902.21 1031.58 1873.95 1026.11 1850.85 1011.02L1763.77 954.134L1749.27 975.493C1745.43 981.158 1739.44 985.092 1732.64 986.43C1725.84 987.769 1718.78 986.401 1713 982.629L1669.46 954.184C1663.69 950.412 1659.68 944.545 1658.31 937.872C1656.95 931.199 1658.34 924.268 1662.19 918.603L1676.68 897.244L1633.14 868.799L1618.64 890.158C1614.8 895.823 1608.82 899.757 1602.02 901.096C1595.21 902.434 1588.15 901.067 1582.37 897.295L1538.83 868.85C1533.06 865.078 1529.05 859.21 1527.68 852.537C1526.32 845.865 1527.71 838.933 1531.56 833.269L1546.05 811.91L1502.51 783.465L1488.02 804.824C1484.17 810.489 1478.19 814.423 1471.39 815.761C1464.59 817.1 1457.52 815.732 1451.75 811.96L1364.66 755.071C1358.89 751.299 1354.88 745.431 1353.51 738.758C1352.15 732.085 1353.54 725.154 1357.39 719.489L1371.88 698.131ZM1879.85 968.306C1891.39 975.85 1905.52 978.584 1919.13 975.907C1932.73 973.231 1944.69 965.362 1952.38 954.033L2271.32 484.137C2279.01 472.807 2281.79 458.945 2279.06 445.599C2276.34 432.254 2268.32 420.518 2256.77 412.974L1777.8 100.081C1766.25 92.5369 1752.12 89.8025 1738.52 92.4792C1724.92 95.1559 1712.95 103.024 1705.26 114.354L1386.33 584.25C1378.64 595.58 1375.85 609.442 1378.58 622.787C1381.31 636.133 1389.33 647.869 1400.88 655.413L1879.85 968.306Z" fill="#CE4CDA"/>
</g>
<defs>
<clipPath id="clip0_143_7">
<rect width="826.05" height="832.163" fill="white" transform="matrix(0.561592 -0.827414 0.837192 0.546909 1255.81 683.959)"/>
</clipPath>
</defs>
</svg>
