<svg width="126" height="29" viewBox="0 0 126 29" fill="none" xmlns="http://www.w3.org/2000/svg">
<rect width="28.0459" height="28.0459" rx="5" fill="#BDA1DB"/>
<path fill-rule="evenodd" clip-rule="evenodd" d="M20.5786 4.88086H7.68563C7.11573 4.88086 6.56916 5.12761 6.16618 5.56684C5.7632 6.00607 5.5368 6.60179 5.5368 7.22295L5.5368 16.5913C5.5368 17.2125 5.7632 17.8082 6.16618 18.2474C6.56916 18.6867 7.11573 18.9334 7.68563 18.9334H20.5786C21.1485 18.9334 21.695 18.6867 22.098 18.2474C22.501 17.8082 22.7274 17.2125 22.7274 16.5913V7.22295C22.7274 6.60179 22.501 6.00607 22.098 5.56684C21.695 5.12761 21.1485 4.88086 20.5786 4.88086ZM7.25586 7.22295C7.25586 7.09872 7.30114 6.97958 7.38174 6.89173C7.46234 6.80388 7.57165 6.75453 7.68563 6.75453H20.5786C20.6926 6.75453 20.8019 6.80388 20.8825 6.89173C20.9631 6.97958 21.0083 7.09872 21.0083 7.22295V16.5913C21.0083 16.7156 20.9631 16.8347 20.8825 16.9225C20.8019 17.0104 20.6926 17.0597 20.5786 17.0597H7.68563C7.57165 17.0597 7.46234 17.0104 7.38174 16.9225C7.30114 16.8347 7.25586 16.7156 7.25586 16.5913V7.22295Z" fill="black"/>
<path fill-rule="evenodd" clip-rule="evenodd" d="M15.4214 17.5281H12.8428C12.6149 17.5281 12.3962 17.6268 12.235 17.8025C12.0738 17.9782 11.9833 18.2164 11.9833 18.4649V20.807C11.9833 21.0555 12.0738 21.2938 12.235 21.4694C12.3962 21.6451 12.6149 21.7438 12.8428 21.7438H15.4214C15.6494 21.7438 15.868 21.6451 16.0292 21.4694C16.1904 21.2938 16.2809 21.0555 16.2809 20.807V18.4649C16.2809 18.2164 16.1904 17.9782 16.0292 17.8025C15.868 17.6268 15.6494 17.5281 15.4214 17.5281ZM13.2726 20.3386V18.9333H14.9916V20.3386H13.2726Z" fill="black"/>
<path d="M10.2642 22.2124C10.0363 22.2124 9.81763 22.1137 9.65643 21.938C9.49524 21.7623 9.40468 21.524 9.40468 21.2755C9.40468 21.0271 9.49524 20.7888 9.65643 20.6131C9.81763 20.4374 10.0363 20.3387 10.2642 20.3387H18C18.2279 20.3387 18.4466 20.4374 18.6078 20.6131C18.769 20.7888 18.8595 21.0271 18.8595 21.2755C18.8595 21.524 18.769 21.7623 18.6078 21.938C18.4466 22.1137 18.2279 22.2124 18 22.2124H10.2642ZM8.54515 7.69141H19.719C19.833 7.69141 19.9423 7.74076 20.0229 7.8286C20.1035 7.91645 20.1488 8.03559 20.1488 8.15982V15.6545C20.1488 15.7788 20.1035 15.8979 20.0229 15.9857C19.9423 16.0736 19.833 16.1229 19.719 16.1229H8.54515C8.43117 16.1229 8.32186 16.0736 8.24126 15.9857C8.16067 15.8979 8.11539 15.7788 8.11539 15.6545V8.15982C8.11539 8.03559 8.16067 7.91645 8.24126 7.8286C8.32186 7.74076 8.43117 7.69141 8.54515 7.69141Z" fill="black"/>
<path d="M37.58 9.82C37.58 9.19333 37.8133 8.70667 38.28 8.36C38.7467 8 39.4067 7.82 40.26 7.82V20.18C40.26 20.82 40.0267 21.3133 39.56 21.66C39.0933 22.0067 38.4333 22.18 37.58 22.18V9.82ZM43.0003 9.22C43.0003 8.87333 43.127 8.58667 43.3803 8.36C43.6336 8.12 43.9536 8 44.3403 8H49.6803C51.1203 8 52.2336 8.38 53.0203 9.14C53.8203 9.9 54.2203 10.9667 54.2203 12.34C54.2203 13.1267 54.0603 13.7933 53.7403 14.34C53.4203 14.8733 52.9336 15.3 52.2803 15.62V15.68C53.4536 16.2 54.0403 17.1867 54.0403 18.64V20.2C54.0403 20.84 53.8136 21.3333 53.3603 21.68C52.907 22.0133 52.2403 22.18 51.3603 22.18V18.76C51.3603 18.0533 51.2203 17.5333 50.9403 17.2C50.6603 16.8667 50.2336 16.7 49.6603 16.7H45.6403V20.2C45.6403 20.8533 45.4136 21.3467 44.9603 21.68C44.5203 22.0133 43.867 22.18 43.0003 22.18V9.22ZM49.5403 14.42C50.1803 14.42 50.6736 14.24 51.0203 13.88C51.367 13.5067 51.5403 12.9867 51.5403 12.32C51.5403 10.96 50.8736 10.28 49.5403 10.28H45.6403V14.42H49.5403ZM61.8211 22.18C60.7278 22.18 59.7278 21.9667 58.8211 21.54C57.9144 21.1 57.1944 20.5067 56.6611 19.76C56.1411 19.0133 55.8811 18.2 55.8811 17.32V12.66C55.8811 11.78 56.1411 10.9733 56.6611 10.24C57.1944 9.49333 57.9144 8.90667 58.8211 8.48C59.7278 8.04 60.7278 7.82 61.8211 7.82C62.9144 7.82 63.9144 8.04 64.8211 8.48C65.7411 8.90667 66.4611 9.49333 66.9811 10.24C67.5144 10.9733 67.7811 11.78 67.7811 12.66V17.32C67.7811 18.2 67.5144 19.0133 66.9811 19.76C66.4611 20.5067 65.7411 21.1 64.8211 21.54C63.9144 21.9667 62.9144 22.18 61.8211 22.18ZM61.8211 19.84C62.8211 19.84 63.6211 19.6067 64.2211 19.14C64.8211 18.66 65.1211 18.04 65.1211 17.28V12.72C65.1211 11.9467 64.8211 11.3267 64.2211 10.86C63.6211 10.38 62.8211 10.14 61.8211 10.14C60.8344 10.14 60.0411 10.38 59.4411 10.86C58.8411 11.3267 58.5411 11.9467 58.5411 12.72V17.28C58.5411 18.04 58.8411 18.66 59.4411 19.14C60.0411 19.6067 60.8344 19.84 61.8211 19.84ZM69.7191 9.94C69.7191 9.28667 69.9391 8.77333 70.3791 8.4C70.8191 8.01333 71.4124 7.82 72.1591 7.82L78.9191 18.38L79.1191 18.22L78.2991 16.86V7.82C79.1657 7.82 79.8191 7.98667 80.2591 8.32C80.7124 8.65333 80.9391 9.14667 80.9391 9.8V20.36C80.9391 20.8533 80.7257 21.28 80.2991 21.64C79.8857 22 79.4057 22.18 78.8591 22.18L71.7391 11.04L71.5391 11.22L72.3591 12.58V20.2C72.3591 20.8533 72.1324 21.3467 71.6791 21.68C71.2391 22.0133 70.5857 22.18 69.7191 22.18V9.94ZM89.6138 18.54H83.7738C83.4271 18.54 83.1538 18.4467 82.9538 18.26C82.7538 18.0733 82.6538 17.8267 82.6538 17.52C82.6538 17.1733 82.7471 16.9 82.9338 16.7L89.9538 8.24C90.0604 8.10667 90.2204 8.00667 90.4338 7.94C90.6471 7.86 90.8738 7.82 91.1138 7.82C91.4604 7.82 91.7471 7.93333 91.9738 8.16C92.2004 8.37333 92.3138 8.64667 92.3138 8.98V16.26H94.6138C94.6138 17.06 94.4738 17.64 94.1938 18C93.9271 18.36 93.5004 18.54 92.9138 18.54H92.3138V20.48C92.3138 21.0667 92.0938 21.5 91.6538 21.78C91.2271 22.0467 90.5471 22.18 89.6138 22.18V18.54ZM89.7738 16.26V12.24L90.5138 11.26L90.3538 11.16L86.1538 16.26H89.7738ZM96.3597 9.22C96.3597 8.87333 96.4864 8.58667 96.7397 8.36C96.993 8.12 97.313 8 97.6997 8H103.26C104.22 8 105.066 8.19333 105.8 8.58C106.546 8.95333 107.12 9.49333 107.52 10.2C107.933 10.8933 108.14 11.7 108.14 12.62C108.14 13.5533 107.94 14.3733 107.54 15.08C107.14 15.7733 106.573 16.3133 105.84 16.7C105.106 17.0733 104.246 17.26 103.26 17.26H99.0397V20.2C99.0397 20.84 98.8064 21.3333 98.3397 21.68C97.8864 22.0133 97.2264 22.18 96.3597 22.18V9.22ZM103.26 14.94C103.966 14.94 104.513 14.7333 104.9 14.32C105.286 13.9067 105.48 13.3333 105.48 12.6C105.48 11.88 105.28 11.32 104.88 10.92C104.493 10.52 103.953 10.32 103.26 10.32H99.0397V14.94H103.26ZM115.323 22.18C114.136 22.18 113.076 21.9533 112.143 21.5C111.223 21.0467 110.503 20.4133 109.983 19.6C109.463 18.7867 109.203 17.86 109.203 16.82V13.14C109.203 12.1 109.456 11.18 109.963 10.38C110.483 9.56667 111.196 8.94 112.103 8.5C113.009 8.04667 114.049 7.82 115.223 7.82C116.396 7.82 117.436 8 118.343 8.36C119.263 8.70667 119.976 9.2 120.483 9.84C120.989 10.4667 121.243 11.1867 121.243 12C121.243 12.4933 121.076 12.8867 120.743 13.18C120.423 13.46 119.989 13.6 119.443 13.6C119.176 13.6 118.883 13.56 118.563 13.48C118.589 13.16 118.603 12.8467 118.603 12.54C118.603 11.8333 118.289 11.26 117.663 10.82C117.036 10.38 116.223 10.16 115.223 10.16C114.236 10.16 113.429 10.44 112.803 11C112.189 11.5467 111.883 12.26 111.883 13.14V16.82C111.883 17.7133 112.203 18.44 112.843 19C113.483 19.56 114.309 19.84 115.323 19.84C116.323 19.84 117.136 19.62 117.763 19.18C118.389 18.74 118.703 18.1733 118.703 17.48C118.703 17.16 118.689 16.8533 118.663 16.56C118.996 16.4933 119.276 16.46 119.503 16.46C120.063 16.46 120.509 16.6067 120.843 16.9C121.176 17.1933 121.343 17.5933 121.343 18.1C121.343 18.8867 121.089 19.5933 120.583 20.22C120.076 20.8333 119.363 21.3133 118.443 21.66C117.536 22.0067 116.496 22.18 115.323 22.18Z" fill="black"/>
</svg>
