<svg width="55" height="55" viewBox="0 0 55 55" fill="none" xmlns="http://www.w3.org/2000/svg">
<path d="M48.125 46.4062L35.2344 33.5156M8.59375 22.3438C8.59375 24.3751 8.99386 26.3866 9.77124 28.2634C10.5486 30.1401 11.688 31.8454 13.1244 33.2818C14.5608 34.7182 16.2661 35.8576 18.1429 36.635C20.0196 37.4124 22.0311 37.8125 24.0625 37.8125C26.0939 37.8125 28.1054 37.4124 29.9821 36.635C31.8589 35.8576 33.5642 34.7182 35.0006 33.2818C36.437 31.8454 37.5764 30.1401 38.3538 28.2634C39.1311 26.3866 39.5313 24.3751 39.5312 22.3438C39.5312 18.2412 37.9015 14.3066 35.0006 11.4057C32.0996 8.50474 28.1651 6.875 24.0625 6.875C19.9599 6.875 16.0254 8.50474 13.1244 11.4057C10.2235 14.3066 8.59375 18.2412 8.59375 22.3438Z" stroke="black" stroke-width="2" stroke-linecap="round" stroke-linejoin="round"/>
</svg>
